<svg xmlns="http://www.w3.org/2000/svg" xmlns:xlink="http://www.w3.org/1999/xlink" width="46.244" height="58.393" viewBox="0 0 46.244 58.393"><defs><style>.a{fill:url(#a);}</style><linearGradient id="a" y1="0.5" x2="1" y2="0.5" gradientUnits="objectBoundingBox"><stop offset="0.05" stop-color="#ffdc8e"/><stop offset="1" stop-color="#f70"/></linearGradient></defs><g transform="translate(0 -0.006)"><path class="a" d="M37.423,31.01c-.008,2.674,0,5.35,0,8.024,0,2.744,0,5.486,0,8.23a2.122,2.122,0,0,1-.458,1.364,1.557,1.557,0,0,1-1.338.67,2.722,2.722,0,0,1-.782-.086,1.506,1.506,0,0,1-1.028-1.042c-.084-.35-.142-.708-.2-1.064a2.118,2.118,0,0,1,.028-.292q-.009-6.762-.022-13.522,0-.981.018-1.962c.008-.38.026-.76.052-1.14A1.643,1.643,0,0,1,35.2,28.766a3.578,3.578,0,0,1,.962.076,1.661,1.661,0,0,1,1.1,1.186,2.961,2.961,0,0,1,.162.984Zm7.484,8.06h0q0-3.861,0-7.722a7.282,7.282,0,0,0-.052-1,2.014,2.014,0,0,0-.516-1.108,1.809,1.809,0,0,0-1.476-.514,1.762,1.762,0,0,0-1.694,1.566,3.524,3.524,0,0,0-.038.824V46.933a2.92,2.92,0,0,0,.258,1.37,1.667,1.667,0,0,0,1.628,1.012,1.822,1.822,0,0,0,1.258-.476,1.718,1.718,0,0,0,.456-.6,3.507,3.507,0,0,0,.182-1.276c-.008-2.63,0-5.26,0-7.89Zm-13.939,8.1a1.613,1.613,0,0,1-.364,1.324,2.091,2.091,0,0,1-1.144.782,1.7,1.7,0,0,1-1.948-.7,8.3,8.3,0,0,1-.824-1.708l-.036-.11a.042.042,0,0,1-.016-.032c-.192-.482-.388-.962-.578-1.444-.09-.23-.17-.462-.258-.692-.114-.3-.2-.352-.512-.342-.22.006-.44.008-.66.008-.262,0-.522-.006-.784-.008-.292,0-.584,0-.878,0s-.584,0-.878,0c-.062,0-.124,0-.186,0h0c-.062,0-.126,0-.188,0l-.522-.014-1.43.006c-.158,0-.318,0-.476,0-.44,0-.882,0-1.322,0-.27,0-.342.068-.428.318-.208.6-.426,1.206-.642,1.806a.282.282,0,0,1-.034.064c-.014.02-.028.04-.042.062-.068.162-.132.326-.2.49-.2.492-.388.984-.62,1.458a1.535,1.535,0,0,1-1.426.868,1.953,1.953,0,0,1-1.858-1.078,1.74,1.74,0,0,1-.174-1.112,7.78,7.78,0,0,1,.632-1.92c.306-.8.61-1.61.924-2.41.322-.822.66-1.638.984-2.458s.638-1.646.962-2.466c.19-.48.392-.956.588-1.436.018-.05.034-.1.052-.15l.01-.012.018-.024c.012-.026.024-.05.034-.076.052-.136.1-.274.154-.41l.048-.19c.008-.012.018-.022.026-.034q.312-.789.622-1.578c.216-.548.424-1.1.65-1.646A14.469,14.469,0,0,1,19.259,30a.729.729,0,0,1,.086-.09c.154-.166.3-.344.454-.5a1.991,1.991,0,0,1,.164-.154,2.564,2.564,0,0,1,1.786-.528.875.875,0,0,1,.2.042,2.072,2.072,0,0,1,1.35.42,2.726,2.726,0,0,1,.916,1.044.729.729,0,0,1,.042.122c.2.414.42.82.6,1.244.3.71.57,1.434.858,2.15.358.888.72,1.772,1.076,2.66a.811.811,0,0,1,.022.244,5.887,5.887,0,0,1,.29.542c.344.828.676,1.66,1.012,2.492.376.928.748,1.856,1.124,2.782s.762,1.824,1.112,2.748a17.771,17.771,0,0,1,.628,1.954ZM19.933,41.124h3.914l.408-.01h.02c.02,0,.04,0,.06,0a.658.658,0,0,1,.046-.066.106.106,0,0,0,.024-.062,2.248,2.248,0,0,0-.08-.416c-.076-.248-.168-.492-.254-.738L24,39.646a.047.047,0,0,1-.01-.032h0a.772.772,0,0,1-.04-.082q-.705-1.947-1.408-3.894c-.234-.648-.474-1.3-.71-1.942a.055.055,0,0,1-.01-.036c-.014-.024-.028-.05-.04-.074h0c-.214-.078-.274-.06-.336.114q-.6,1.68-1.2,3.364c-.122.342-.24.684-.366,1.024-.108.3-.224.59-.338.884-.214.642-.43,1.284-.64,1.928a1.325,1.325,0,0,0-.028.224h.45l.61,0ZM46.178,19.23a8.692,8.692,0,0,0-1.516-1.55,7.849,7.849,0,0,0-2.14-1.236c-.218-.08-.436-.164-.652-.248h0c-.1-.038-.192-.082-.29-.112a5.658,5.658,0,0,0-1.54-.346l-.636-.112c-.02-.012-.04-.032-.062-.032-.6-.012-1.206-.02-1.808-.03l-.46.028c-.136.008-.272.016-.408.028q-.636.06-1.27.122l-.518.05-.036.024h0c-.02.01-.04.02-.06.032l-.164.016-1.03.1c-.172.016-.344.036-.516.04-.044,0-.126-.054-.13-.088a1.441,1.441,0,0,1,.008-.464c.092-.338.212-.668.326-1,.12-.356.246-.708.37-1.062.16-.456.324-.912.482-1.37.22-.64.436-1.284.656-1.924.176-.512.358-1.022.536-1.532.012-.028.028-.056.038-.084.192-.586.378-1.174.574-1.758.15-.446.314-.886.474-1.33.136-.382.28-.762.408-1.148a.167.167,0,0,1,.2-.134,1.814,1.814,0,0,0,.884-.154,1.857,1.857,0,0,0,1.15-1.39A1.917,1.917,0,0,0,38.209.6a1.917,1.917,0,0,0-2.318.236,1.9,1.9,0,0,0-.56,1.436,1.773,1.773,0,0,0,.7,1.394c.124.1.266.174.384.28a.251.251,0,0,1,.078.2,2.655,2.655,0,0,1-.2.548c-.236.444-.488.88-.732,1.32-.026.05-.054.1-.08.148h0c-.034.064-.068.126-.1.19-.108.192-.218.382-.324.574-.242.436-.482.87-.72,1.306-.29.532-.576,1.064-.864,1.6-.01.006-.024.012-.028.022-.192.336-.384.67-.572,1.008-.266.478-.526.96-.788,1.438-.032.05-.062.1-.094.15s-.052.094-.078.142c-.114.2-.23.406-.342.608-.366.658-.734,1.316-1.1,1.976-.178.322-.346.65-.518.974-.022.038-.046.076-.068.116-.014.024-.03.048-.044.074s-.024.024-.036.038l-.116.11c-.25.04-.5.082-.748.116-.446.064-.894.122-1.342.184l-.562.08a.706.706,0,0,0-.092,0c-.514.062-1.028.124-1.542.19-.428.054-.856.114-1.282.17l-1.748.2c-.33.038-.662.074-.992.114-.184.022-.366.054-.548.08-.344.026-.69.038-1.032.082-.592.076-1.182.172-1.772.26a.7.7,0,0,0-.13,0,.381.381,0,0,1-.478-.214q-.69-1.191-1.384-2.382c-.31-.544-.618-1.09-.932-1.63-.322-.556-.652-1.108-.978-1.662-.212-.37-.424-.738-.638-1.108q-.648-1.113-1.3-2.226c-.042-.072-.12-.122-.16-.194-.074-.136-.134-.28-.2-.42-.068-.124-.134-.25-.206-.372L9.368,3.921a.363.363,0,0,1,.078-.5A2.368,2.368,0,0,0,9.67,3.2a1.848,1.848,0,0,0,.49-1.682,2.067,2.067,0,0,0-.2-.552,1.676,1.676,0,0,0-.22-.31,1.534,1.534,0,0,0-.212-.2A1.917,1.917,0,0,0,9.27.287C9.234.265,9.2.239,9.164.215A.613.613,0,0,0,9.052.153,1.868,1.868,0,0,0,6.594,2.571a1.842,1.842,0,0,0,1.84,1.2c.162,0,.324-.006.486,0a.938.938,0,0,1,.194.044h0c.28.716.556,1.434.842,2.148.268.668.546,1.334.818,2s.542,1.32.812,1.978l.216.49c.024.062.05.124.074.188.054.142.106.286.158.428s.106.284.164.426c.336.836.672,1.67,1.014,2.5.186.454.38.9.572,1.354.036.092.072.184.11.276l.042.1.114.3c.038.1.076.2.118.3.19.466.39.928.568,1.4a2.827,2.827,0,0,1,.1.524.222.222,0,0,1-.21.274c-.152.026-.308.034-.462.05a.561.561,0,0,0-.062.016.225.225,0,0,1-.064.01l-2.154.156-.978.07-1.638.12c-.182.018-.364.03-.546.046s-.364.034-.544.06c-.256.038-.51.082-.764.128s-.508.094-.764.138a5.25,5.25,0,0,0-1.018.284c-.108.042-.216.086-.322.134-.142.064-.282.132-.418.2-.33.172-.652.368-.97.57l-.04.04a.068.068,0,0,0-.018.028.317.317,0,0,0-.086.032A7.657,7.657,0,0,0,1.96,22.482,11.007,11.007,0,0,0,.306,26.448,11.446,11.446,0,0,0,0,29.008c0,.84.02,1.682.03,2.522,0,.044.008.086.012.13.046.52.094,1.038.134,1.558.014.192-.006.388.012.58.08.92.174,1.84.252,2.762.03.346.022.7.046,1.044.042.67.094,1.338.142,2.006.006.08.016.16.024.24.042.432.088.864.124,1.3.02.26.012.522.032.782.032.4.086.79.116,1.186.018.242,0,.486.016.728.04.564.092,1.126.136,1.688.012.154.016.31.028.464.04.514.084,1.028.12,1.542.012.162,0,.324.01.486.044.556.12,1.112.134,1.67a7.564,7.564,0,0,0,.424,2.466,7.472,7.472,0,0,0,2.086,2.982,6.613,6.613,0,0,0,.486.49,19.115,19.115,0,0,0,3.442,2.256c.328.166.654.334.988.486a.852.852,0,0,0,.28.024,1.546,1.546,0,0,0-.034-.256.735.735,0,0,0-.11-.192,8.3,8.3,0,0,1-.946-1.974,15.213,15.213,0,0,1-.656-2.432c-.036-.2-.092-.4-.118-.6-.064-.49-.114-.982-.174-1.474-.038-.314-.114-.624-.122-.938-.028-1.02-.032-2.042-.046-3.064a.739.739,0,0,0,0-.094c-.036-.514-.072-1.026-.106-1.54-.01-.136-.006-.274-.018-.41-.042-.45-.09-.9-.13-1.348-.016-.166-.01-.336-.026-.5-.038-.432-.088-.862-.124-1.294-.016-.2.014-.4-.014-.6a9.655,9.655,0,0,1-.14-1.8,2.713,2.713,0,0,0-.026-.334c-.04-.444-.084-.888-.12-1.332-.018-.234-.018-.472-.036-.706-.036-.5-.078-1-.116-1.5C6,35.89,6,35.766,5.984,35.642c-.04-.424-.106-.848-.12-1.274-.02-.6.012-1.2-.01-1.8A6.816,6.816,0,0,1,6.22,30.4c.138-.472.35-.924.528-1.384a4.443,4.443,0,0,1,.324-.62c.42-.57.846-1.14,1.3-1.682a9.793,9.793,0,0,1,.85-.8c.468-.352.926-.72,1.41-1.048.358-.24.752-.426,1.132-.636.164-.086.33-.166.5-.242.126-.056.254-.112.382-.164.384-.156.776-.29,1.176-.408.182,0,.364.006.544-.016.506-.058,1.01-.128,1.514-.194l1.57-.2.786-.1c.354-.036.71-.068,1.064-.108.544-.062,1.086-.128,1.63-.192.076-.012.152-.024.228-.038s.152-.024.228-.032c.268-.028.54-.042.808-.074.244-.03.486-.082.73-.114.406-.056.814-.106,1.222-.158.488-.048.976-.09,1.462-.142.522-.058,1.044-.124,1.566-.188.392-.036.784-.064,1.176-.11.47-.056.936-.126,1.4-.192.138-.022.276-.05.416-.066.208-.022.416-.03.624-.054.364-.042.728-.092,1.092-.14.092-.006.184-.006.274-.02.248-.038.494-.092.744-.122.594-.072,1.192-.132,1.786-.2l1.924-.216c.244-.028.488-.054.732-.08.164-.022.326-.052.492-.068.2-.02.4-.024.6-.048.358-.044.714-.1,1.072-.146h.15c.472-.062.942-.12,1.414-.184.228-.032.454-.078.68-.116.372-.04.744-.084,1.118-.12.166-.016.334-.012.5-.028.312-.03.622-.07.932-.106.232-.026.464-.048.694-.076.28-.034.56-.068.836-.114a.837.837,0,0,0,.286-.112.193.193,0,0,0,.056-.324Z" transform="translate(0 0)"/></g></svg>