<svg xmlns="http://www.w3.org/2000/svg" xmlns:xlink="http://www.w3.org/1999/xlink" width="108.234" height="39.347" viewBox="0 0 108.234 39.347"><defs><style>.a{fill:url(#a);}.b{fill:#fff;}.c{fill:url(#b);}</style><linearGradient id="a" x1="0.621" y1="0.129" x2="-0.136" y2="0.884" gradientUnits="objectBoundingBox"><stop offset="0.05" stop-color="#163a96"/><stop offset="1" stop-color="#2cdff8"/></linearGradient><linearGradient id="b" x1="0.492" y1="1.734" x2="0.503" y2="0.184" xlink:href="#a"/></defs><g transform="translate(-13.2 -13.34)"><path class="a" d="M271.3,43.005l1.328-.822c.892-.54,1.781-1.082,2.68-1.607,1.8-1.055,3.605-2.088,5.448-3.069,1.128-.6,2.266-1.186,3.415-1.748l4.918-2.851L275.319,25c-.187-.025-.377-.049-.564-.067-.411-.043-.825-.067-1.239-.077s-.825,0-1.236.037a11.735,11.735,0,0,0-2.416.448,11.444,11.444,0,0,0-2.263.95,15.5,15.5,0,0,0-3.842,3.069,29.117,29.117,0,0,0-3.008,3.964l-.025-.012a21.15,21.15,0,0,1,2.784-4.173l.1-.12.107-.117.215-.23c.144-.153.285-.31.441-.454l.457-.438.478-.414a13.568,13.568,0,0,1,2.094-1.429,11.05,11.05,0,0,1,4.85-1.358,12.119,12.119,0,0,1,2.517.15c.031.006.064.012.1.015l-1.012-.583a14.025,14.025,0,0,0-1.864-.037A10.526,10.526,0,0,0,267.3,25.49a12.906,12.906,0,0,0-2.014,1.419,18.176,18.176,0,0,0-1.76,1.744,30.854,30.854,0,0,0-2.925,4.044l-.025-.012a22.246,22.246,0,0,1,2.7-4.246c.129-.166.273-.322.414-.481l.208-.236c.071-.08.147-.153.221-.227.15-.15.294-.3.445-.451l.469-.429a12.511,12.511,0,0,1,2.073-1.475,10.391,10.391,0,0,1,2.355-.972,10.162,10.162,0,0,1,2.517-.359,12.485,12.485,0,0,1,1.355.052l-.837-.481c-.31-.025-.622-.043-.932-.04a8.864,8.864,0,0,0-4.74,1.328,12.2,12.2,0,0,0-1.981,1.524,20.411,20.411,0,0,0-1.72,1.843,39.567,39.567,0,0,0-2.9,4.163l-.025-.012a26.709,26.709,0,0,1,2.667-4.357,18.092,18.092,0,0,1,1.711-1.919l.475-.435.5-.411c.172-.132.346-.258.521-.386s.362-.236.543-.353a8.755,8.755,0,0,1,4.954-1.3c.113,0,.224.009.334.015l-1-.576c-6.889.334-10.537,8.134-11.022,9.234-.018.043-.037.086-.055.132,0,0,.018-.046.055-.132,2.959-6.947,6.665-9.375,10.05-9.792L269.4,21.6c-5.739,1.058-8.937,7.416-9.685,9.087-.058.132-.116.267-.172.4,0,0,.058-.147.172-.4,2.75-6.346,5.761-8.882,8.774-9.611l-.745-.426c-4.415,1.594-6.242,5.046-8.655,10.013,2.956-8.413,6.2-9.985,7.576-10.632l-.518-.3c-3.786,1.95-6.015,6.8-7.441,10.332.929-3.783,3.547-8.713,6.346-10.96l-.463-.267c-3.29,2.4-5.154,7.1-6.218,10.559.576-3.682,2.673-8.594,5.129-11.184l-.469-.27c-2.86,2.787-4.108,7.361-5.117,10.951.509-3.593,1.981-8.664,4.081-11.546l-.487-.279c-2.4,3.7-3.13,7.7-4.142,11.3a45.685,45.685,0,0,1,2.931-12l-.423-.242a48.752,48.752,0,0,0-3.063,11.715,57.941,57.941,0,0,1,1.947-12.355l-.53-.307a73.52,73.52,0,0,0-2.03,11.9,106.164,106.164,0,0,1,1-12.49l-.656-.377-.92,12.3-.138-12.913-.466-.267-.031,39.347,12.3-7.131q1.338-.869,2.689-1.72c.438-.279.883-.555,1.324-.828Zm8.048-13.714v.028a19.629,19.629,0,0,0-5.16.141,15.616,15.616,0,0,0-4.829,1.717,18.161,18.161,0,0,0-2.155,1.4c-.169.132-.346.258-.509.4l-.5.411c-.322.285-.647.567-.953.868s-.613.607-.917.914c-.288.319-.589.632-.865.963-.576.644-1.1,1.331-1.631,2.014l-.021-.015a26.017,26.017,0,0,1,3.274-4.038,18.423,18.423,0,0,1,4.142-3.161,14.821,14.821,0,0,1,4.927-1.686,16.433,16.433,0,0,1,2.6-.175,20.319,20.319,0,0,1,2.591.221Zm-.527-.515a18.445,18.445,0,0,0-2.569-.071c-.426.018-.852.055-1.278.1s-.846.123-1.263.212a16.124,16.124,0,0,0-4.752,1.833,18.609,18.609,0,0,0-2.122,1.429c-.34.258-.668.533-.993.809l-.478.426c-.159.141-.31.294-.466.438l-.233.221-.224.23c-.15.153-.3.3-.448.46-.288.316-.583.628-.858.957-.57.641-1.091,1.321-1.619,2l-.021-.015a26.327,26.327,0,0,1,3.247-4.016,19.488,19.488,0,0,1,4.081-3.182,15.273,15.273,0,0,1,4.85-1.806,14.872,14.872,0,0,1,2.578-.251,16.411,16.411,0,0,1,2.575.19v.028Zm-.558-.4a17.355,17.355,0,0,0-4.915.169,15.146,15.146,0,0,0-4.59,1.686,17.4,17.4,0,0,0-2.048,1.355c-.328.245-.641.509-.957.773s-.613.546-.9.834l-.224.212c-.074.071-.144.147-.215.221l-.429.445c-.273.307-.558.607-.819.926-.546.619-1.039,1.278-1.539,1.938l-.021-.015a24.425,24.425,0,0,1,3.084-3.884,17.574,17.574,0,0,1,3.933-3.044,14.294,14.294,0,0,1,4.688-1.656,14.984,14.984,0,0,1,2.483-.193,17.568,17.568,0,0,1,2.474.208v.028Zm-.445-.478a17.377,17.377,0,0,0-4.853.144,14.465,14.465,0,0,0-4.528,1.668,16.7,16.7,0,0,0-2.011,1.352c-.322.245-.632.509-.938.77l-.451.408c-.15.135-.294.279-.441.42l-.221.212-.212.218c-.141.147-.285.291-.42.438-.27.3-.549.6-.8.917-.537.613-1.024,1.266-1.518,1.913l-.021-.015a24.442,24.442,0,0,1,3.035-3.845,17.575,17.575,0,0,1,3.866-3.032,13.771,13.771,0,0,1,4.629-1.64,14.309,14.309,0,0,1,2.453-.175,18.553,18.553,0,0,1,2.44.218V27.9Zm-16.341,7.6c.426-.656.877-1.3,1.361-1.922a23.09,23.09,0,0,1,1.548-1.781,16.866,16.866,0,0,1,3.71-2.922,13.021,13.021,0,0,1,4.445-1.585,13.815,13.815,0,0,1,2.358-.162c.392.009.788.034,1.177.074s.782.089,1.168.15v.028a16.4,16.4,0,0,0-4.666.126,13.694,13.694,0,0,0-4.344,1.616,15.672,15.672,0,0,0-1.931,1.3,20.894,20.894,0,0,0-1.757,1.539c-.555.549-1.091,1.116-1.591,1.717-.258.294-.5.6-.745.9-.126.15-.239.31-.359.466l-.359.466-.021-.015ZM277.339,27a13.244,13.244,0,0,0-9.164,1.444,17.166,17.166,0,0,0-3.75,2.867c-.141.138-.276.285-.414.426s-.276.285-.4.435l-.4.445c-.129.15-.254.307-.38.457-.261.3-.5.619-.742.935-.126.156-.236.322-.353.481l-.353.481-.021-.015a21.328,21.328,0,0,1,2.854-3.854l.423-.429c.138-.144.291-.276.438-.414l.221-.205c.074-.067.153-.132.23-.2.156-.129.3-.264.466-.386l.481-.365c.162-.117.331-.23.5-.346s.34-.218.509-.325.346-.205.524-.3a12.745,12.745,0,0,1,4.571-1.511,12.422,12.422,0,0,1,2.41-.064,11.867,11.867,0,0,1,2.364.42l-.006.028Zm-.524-.549a13.694,13.694,0,0,0-4.688-.11,12.376,12.376,0,0,0-4.369,1.582,15.568,15.568,0,0,0-1.919,1.337,20.169,20.169,0,0,0-1.723,1.594,30.965,30.965,0,0,0-2.952,3.685l-.021-.015a21.518,21.518,0,0,1,2.732-3.9c.132-.15.27-.294.408-.438l.205-.218.215-.208c.144-.138.285-.279.435-.414l.451-.4a14.787,14.787,0,0,1,1.962-1.383,11.682,11.682,0,0,1,4.528-1.545,11.37,11.37,0,0,1,2.394-.04,13.143,13.143,0,0,1,2.342.435l-.006.028Zm-13.287,3.587c.126-.153.261-.3.392-.448l.2-.221c.067-.074.138-.141.208-.215.141-.141.279-.285.423-.423l.441-.4a14.141,14.141,0,0,1,1.931-1.416,11.3,11.3,0,0,1,2.171-1.018,10.734,10.734,0,0,1,2.336-.524,11.279,11.279,0,0,1,2.385-.006,14.268,14.268,0,0,1,2.327.46l-.006.028a13.975,13.975,0,0,0-4.666-.169,11.5,11.5,0,0,0-4.338,1.576,16.191,16.191,0,0,0-3.556,3,30.379,30.379,0,0,0-2.827,3.756L260.925,34a20.818,20.818,0,0,1,2.6-3.961ZM257.656,46.2c.441-1.045.929-2.069,1.444-3.081s1.082-2,1.683-2.962a31.927,31.927,0,0,1,1.962-2.79,26.372,26.372,0,0,1,2.269-2.554,19.248,19.248,0,0,1,5.577-3.9,15.987,15.987,0,0,1,3.244-1.058,15.555,15.555,0,0,1,3.388-.325v.028a16.445,16.445,0,0,0-6.543,1.554,18.421,18.421,0,0,0-2.9,1.714,21.865,21.865,0,0,0-2.569,2.189,28.8,28.8,0,0,0-2.256,2.517c-.705.883-1.355,1.806-1.974,2.75s-1.2,1.919-1.738,2.913-1.061,2-1.557,3.02l-.025-.012Zm.359,0c.472-1.021.984-2.023,1.524-3.011s1.125-1.95,1.744-2.891,1.288-1.852,2-2.729a27.516,27.516,0,0,1,2.281-2.5,22.286,22.286,0,0,1,2.609-2.161,17.557,17.557,0,0,1,2.937-1.686,16.036,16.036,0,0,1,3.213-1.058,15.263,15.263,0,0,1,3.357-.328v.028a16.259,16.259,0,0,0-6.481,1.554,18.9,18.9,0,0,0-2.882,1.7,21.75,21.75,0,0,0-2.563,2.152,30.341,30.341,0,0,0-2.272,2.465c-.714.862-1.374,1.769-2.008,2.692s-1.232,1.873-1.8,2.842-1.11,1.95-1.634,2.946l-.025-.012Zm.215.264c.5-1.009,1.033-2,1.594-2.974s1.165-1.925,1.8-2.857,1.315-1.83,2.036-2.7a27.94,27.94,0,0,1,2.309-2.474,22.834,22.834,0,0,1,2.624-2.14,18.007,18.007,0,0,1,2.94-1.683,16.927,16.927,0,0,1,3.2-1.085,16.464,16.464,0,0,1,3.351-.4v.028a17.39,17.39,0,0,0-6.463,1.656,20.316,20.316,0,0,0-2.885,1.7,22.87,22.87,0,0,0-2.581,2.134,31.449,31.449,0,0,0-2.3,2.44c-.724.855-1.4,1.751-2.048,2.661s-1.266,1.852-1.852,2.808-1.153,1.925-1.7,2.906l-.025-.012Zm.288-.049c.543-.981,1.116-1.944,1.708-2.894s1.223-1.879,1.876-2.79,1.352-1.79,2.088-2.643a29.142,29.142,0,0,1,2.336-2.431,23.9,23.9,0,0,1,2.634-2.109,18.118,18.118,0,0,1,2.94-1.656,17.019,17.019,0,0,1,3.2-1.064,16.774,16.774,0,0,1,3.339-.392v.028a17.592,17.592,0,0,0-6.444,1.628,20.146,20.146,0,0,0-2.885,1.668,23.347,23.347,0,0,0-2.591,2.1,36.578,36.578,0,0,0-4.427,5.007c-.671.892-1.312,1.809-1.931,2.741s-1.22,1.873-1.815,2.824l-.025-.012Zm.4.12c.552-1,1.141-1.974,1.754-2.937s1.269-1.9,1.953-2.811,1.416-1.794,2.183-2.64a28.739,28.739,0,0,1,2.447-2.4,23.919,23.919,0,0,1,2.747-2.057,19.006,19.006,0,0,1,3.041-1.591,17.77,17.77,0,0,1,3.28-1,17.394,17.394,0,0,1,3.4-.328v.028a18.336,18.336,0,0,0-6.6,1.5,21.2,21.2,0,0,0-2.986,1.607,23.748,23.748,0,0,0-2.7,2.051,31.746,31.746,0,0,0-2.437,2.37c-.773.831-1.5,1.708-2.2,2.6s-1.367,1.815-2.005,2.756-1.257,1.9-1.858,2.864l-.025-.012Zm.359.071c.579-.981,1.193-1.944,1.827-2.891s1.312-1.867,2.014-2.768,1.453-1.766,2.238-2.6a29.693,29.693,0,0,1,2.493-2.358,24.222,24.222,0,0,1,2.784-2.011,19.8,19.8,0,0,1,3.06-1.557,19.19,19.19,0,0,1,3.28-1,19.515,19.515,0,0,1,3.4-.389v.028a20.5,20.5,0,0,0-3.369.506,19.3,19.3,0,0,0-3.228,1.058,21.933,21.933,0,0,0-3.008,1.576,24.353,24.353,0,0,0-2.741,2.008,31.19,31.19,0,0,0-2.48,2.327c-.788.819-1.53,1.68-2.247,2.56s-1.4,1.787-2.066,2.713-1.3,1.867-1.931,2.818l-.021-.015Zm.383.144c.6-.966,1.232-1.91,1.882-2.845s1.34-1.84,2.051-2.729,1.469-1.741,2.26-2.566a30.066,30.066,0,0,1,2.5-2.336,25.126,25.126,0,0,1,2.781-2,19.839,19.839,0,0,1,3.054-1.551,18.866,18.866,0,0,1,6.662-1.386v.028a20.721,20.721,0,0,0-3.36.5,19.472,19.472,0,0,0-3.219,1.055,21.824,21.824,0,0,0-3,1.57,24.566,24.566,0,0,0-2.738,1.993,32.736,32.736,0,0,0-2.489,2.3c-.794.809-1.542,1.662-2.269,2.526s-1.429,1.763-2.1,2.673-1.337,1.836-1.984,2.768l-.021-.015Zm.478-.12c.613-.963,1.263-1.9,1.938-2.827s1.386-1.818,2.128-2.689,1.527-1.7,2.345-2.508a31.217,31.217,0,0,1,2.581-2.266,26.193,26.193,0,0,1,2.845-1.928,21.006,21.006,0,0,1,3.1-1.493,19.9,19.9,0,0,1,3.3-.953,18.764,18.764,0,0,1,3.409-.34v.028a20.473,20.473,0,0,0-6.628,1.465,23.475,23.475,0,0,0-3.047,1.511,25.81,25.81,0,0,0-2.805,1.925,33.57,33.57,0,0,0-2.572,2.235c-.822.788-1.6,1.619-2.355,2.468S262.9,42.99,262.2,43.891s-1.377,1.818-2.039,2.747l-.021-.015Zm.215.025c.656-.929,1.343-1.84,2.048-2.735s1.447-1.763,2.21-2.609,1.567-1.659,2.4-2.443a34,34,0,0,1,2.606-2.223,28.279,28.279,0,0,1,2.848-1.907,21.821,21.821,0,0,1,3.084-1.493,19.789,19.789,0,0,1,3.287-.963,18.377,18.377,0,0,1,3.4-.346v.028a20.138,20.138,0,0,0-6.607,1.484,24.586,24.586,0,0,0-3.038,1.511,27.082,27.082,0,0,0-2.808,1.907q-1.347,1.035-2.6,2.192c-.834.77-1.628,1.579-2.407,2.407s-1.53,1.68-2.256,2.551-1.444,1.757-2.146,2.652l-.021-.015Zm.478-.1c.684-.9,1.395-1.79,2.125-2.661s1.49-1.714,2.272-2.539,1.6-1.616,2.443-2.376,1.72-1.49,2.64-2.164a29.136,29.136,0,0,1,2.864-1.861,22.373,22.373,0,0,1,3.087-1.462,20.337,20.337,0,0,1,3.277-.95,18.508,18.508,0,0,1,3.388-.343v.028a19.919,19.919,0,0,0-3.357.46,20.405,20.405,0,0,0-3.228,1.006,24.845,24.845,0,0,0-3.038,1.484,28.621,28.621,0,0,0-2.827,1.861c-.9.674-1.784,1.383-2.63,2.134s-1.659,1.539-2.456,2.342-1.567,1.634-2.318,2.48-1.49,1.708-2.22,2.575l-.021-.015ZM261,46.8c.73-.892,1.487-1.763,2.25-2.627s1.561-1.7,2.373-2.52,1.656-1.613,2.523-2.376,1.766-1.5,2.7-2.174a29.723,29.723,0,0,1,2.922-1.873,22.892,22.892,0,0,1,3.142-1.472,20.69,20.69,0,0,1,3.336-.95,19.136,19.136,0,0,1,3.443-.343v.028a21.02,21.02,0,0,0-6.7,1.469,25.66,25.66,0,0,0-3.1,1.49,30.138,30.138,0,0,0-2.885,1.873c-.926.678-1.827,1.392-2.695,2.146s-1.708,1.539-2.532,2.339-1.628,1.625-2.419,2.465-1.57,1.686-2.345,2.539L261,46.791Zm.334.166c.754-.883,1.53-1.748,2.318-2.606s1.6-1.686,2.431-2.5,1.692-1.6,2.575-2.358,1.8-1.484,2.75-2.155a30.524,30.524,0,0,1,2.962-1.858,23.05,23.05,0,0,1,3.179-1.456,21.327,21.327,0,0,1,3.366-.938,19.718,19.718,0,0,1,3.471-.337v.028a21.6,21.6,0,0,0-6.76,1.45,26.3,26.3,0,0,0-3.133,1.478,30.612,30.612,0,0,0-2.925,1.861,48.823,48.823,0,0,0-5.325,4.452c-.843.794-1.668,1.613-2.477,2.443s-1.61,1.671-2.41,2.514l-.021-.018Zm.668-.239q.589-.7,1.208-1.383T264.475,44q1.288-1.306,2.664-2.532a49.417,49.417,0,0,1,5.844-4.458c1.033-.659,2.1-1.278,3.192-1.833a22.92,22.92,0,0,1,3.4-1.416,12.79,12.79,0,0,1,3.621-.659,8.416,8.416,0,0,1,.923.043,6.6,6.6,0,0,1,.911.166,5.161,5.161,0,0,1,.871.31,5.279,5.279,0,0,1,.794.466l-.015.021a5.053,5.053,0,0,0-.8-.429,5.685,5.685,0,0,0-.865-.279,6.829,6.829,0,0,0-.9-.135,8.162,8.162,0,0,0-.907-.015,12.646,12.646,0,0,0-3.559.717,30.137,30.137,0,0,0-6.509,3.277c-1.021.665-2.023,1.361-3,2.1s-1.919,1.508-2.845,2.3-1.83,1.616-2.7,2.471-1.726,1.729-2.557,2.627l-.021-.018Zm.212.184-.018-.018c.8-.892,1.634-1.751,2.489-2.585s1.748-1.637,2.655-2.419,1.849-1.527,2.805-2.247,1.938-1.413,2.946-2.06,2.045-1.257,3.106-1.815a26.26,26.26,0,0,1,3.287-1.469,13.917,13.917,0,0,1,3.5-.822,6.708,6.708,0,0,1,1.8.086,3.991,3.991,0,0,1,1.646.708l-.015.021a4.076,4.076,0,0,0-1.646-.638,6.724,6.724,0,0,0-1.772-.031,13.7,13.7,0,0,0-3.443.88,34.368,34.368,0,0,0-6.319,3.311,59.841,59.841,0,0,0-5.755,4.246q-1.38,1.14-2.7,2.358c-.883.8-1.735,1.64-2.578,2.493Zm.77-.426c.8-.8,1.628-1.573,2.468-2.333s1.708-1.487,2.585-2.2,1.778-1.4,2.692-2.073,1.843-1.318,2.8-1.928,1.925-1.2,2.925-1.738a28.219,28.219,0,0,1,3.075-1.462c.527-.208,1.064-.4,1.61-.558a11.386,11.386,0,0,1,1.668-.365,7.2,7.2,0,0,1,.852-.064,4.718,4.718,0,0,1,.855.055,3.642,3.642,0,0,1,.825.221,2.719,2.719,0,0,1,.73.438l-.015.021A3.137,3.137,0,0,0,284.5,33.9a5.094,5.094,0,0,0-.837-.028,6.931,6.931,0,0,0-.834.089,11.432,11.432,0,0,0-1.634.4q-.8.253-1.582.586a38.7,38.7,0,0,0-5.929,3.231c-.944.613-1.879,1.248-2.8,1.907s-1.812,1.346-2.7,2.039-1.766,1.407-2.624,2.143-1.711,1.478-2.551,2.235l-.018-.018Zm.074.239q1.145-1.035,2.321-2.045l.589-.5.6-.491c.4-.325.794-.659,1.2-.975s.806-.641,1.217-.953l1.239-.929,1.26-.9c.426-.294.852-.583,1.282-.871a44.153,44.153,0,0,1,5.378-3.069l.705-.322.353-.162.359-.147.717-.294c.12-.052.239-.1.362-.138l.365-.132c.245-.086.484-.178.73-.254l.739-.227c.123-.037.245-.077.371-.11l.374-.1.751-.187.006.025a29.5,29.5,0,0,0-2.922.99c-.236.1-.481.181-.714.285l-.705.31-.353.153-.346.169-.693.337a50.385,50.385,0,0,0-5.319,3.109c-1.717,1.131-3.379,2.345-5.01,3.6-.414.307-.812.632-1.22.944l-.607.475-.6.484c-.4.322-.809.638-1.2.969s-.8.653-1.2.975l-.018-.021Zm.144.215q1.2-1.016,2.431-2.005l.616-.491.622-.484c.414-.322.828-.647,1.248-.96,1.674-1.269,3.391-2.486,5.16-3.624a52.8,52.8,0,0,1,5.479-3.124l.714-.337.356-.169c.12-.055.242-.1.362-.156l.724-.313.181-.077.184-.071.368-.141c.245-.092.491-.19.739-.276l.748-.248c.126-.04.248-.083.374-.123l.38-.107.76-.212.006.025c-1,.325-1.993.656-2.952,1.076-.969.4-1.913.849-2.848,1.321-1.864.957-3.664,2.03-5.423,3.167s-3.477,2.342-5.175,3.575c-.429.3-.846.619-1.269.929l-.632.469-.625.475c-.417.316-.843.625-1.257.947s-.834.638-1.251.953l-.015-.021Zm.549,0c.809-.656,1.631-1.3,2.456-1.941.414-.319.831-.632,1.248-.944s.834-.629,1.257-.932c1.683-1.232,3.406-2.416,5.169-3.532a58.869,58.869,0,0,1,5.454-3.084c.472-.224.938-.46,1.416-.668l.714-.319c.239-.1.481-.2.724-.3.969-.4,1.956-.733,2.955-1.033l.009.025c-.981.356-1.959.714-2.906,1.144-.236.107-.478.205-.714.313l-.705.334c-.472.215-.932.46-1.4.7-1.846.96-3.645,2.011-5.4,3.127s-3.48,2.287-5.187,3.483c-.429.294-.852.6-1.275.9s-.849.6-1.269.914-.849.607-1.266.917-.84.616-1.263.92l-.015-.021Zm.408-.025q1.237-.929,2.5-1.833.63-.451,1.263-.9c.423-.3.843-.595,1.269-.886,1.7-1.171,3.428-2.306,5.187-3.388s3.556-2.109,5.4-3.044l.693-.35c.23-.117.466-.224.7-.337l.7-.334.705-.319q1.416-.63,2.867-1.174l.009.025-.708.31c-.236.1-.475.2-.708.313-.469.218-.938.426-1.4.656l-.7.337-.69.35c-.23.117-.46.23-.687.353l-.681.365q-2.722,1.462-5.353,3.09c-1.757,1.079-3.486,2.2-5.206,3.339q-.648.423-1.288.855t-1.285.865l-2.569,1.729-.015-.021Zm3.09-1.656c-.868.527-1.729,1.061-2.6,1.582l-.015-.021c.84-.57,1.686-1.125,2.529-1.689l2.548-1.662q2.552-1.656,5.154-3.234c1.738-1.049,3.5-2.066,5.292-3.011.448-.239.9-.469,1.352-.7s.907-.454,1.364-.674.92-.426,1.38-.641.929-.408,1.395-.61l.012.025-1.364.668c-.451.23-.907.454-1.355.69-.9.466-1.794.938-2.68,1.435q-2.653,1.481-5.249,3.06c-1.732,1.049-3.452,2.122-5.178,3.188l-2.585,1.6Z" transform="translate(-167.654 0)"/><path class="b" d="M62.5,29.519c-.5.862-.748.794-1.2.159s-.907-2.2,1.226-4.384S68.63,20.754,73.263,22c3.431.966,9.323,4.3,8.266,12.65S72.3,44.223,69.777,43.984s-6.165-1.294-8.958-6.031-3.658-6.53-4.973-9.026C49.407,19.9,41.2,25.589,39.529,29.3c-.288.512-.392.681-.8.681s-.512-.325-.478-1.125A5.55,5.55,0,0,1,39.7,25.245c1.275-1.484,3.44-3.474,8.312-3.544a11.034,11.034,0,0,1,7.836,3.814c.512.512.92.613.852-.748s-.135-5.96-.135-6.711a4.841,4.841,0,0,1,.555-1.806c.181-.5.794-.681,1.045.181a6.24,6.24,0,0,1,.705,3.112,27.858,27.858,0,0,0,.227,9.311,21.957,21.957,0,0,0,4.973,9.676,8.6,8.6,0,0,0,11.016,2.088,8.933,8.933,0,0,0,4.246-9.811,9.247,9.247,0,0,0-9.13-6.791c-4.632.135-7.291,4.746-7.7,5.5Zm-6.791,6.938c-3.032,4.77-6.267,5.451-7.766,5.485-6.031-.067-8.686-6.031-11.923-11.684s-6.779-8.449-10.884-8.551S17.4,24.681,16.658,25.6s-.671-.046-.671-.046.021-5.893,0-7.257-.748-1.76-.92-2.214-.647-.159-.819.205a2.63,2.63,0,0,0-.328,1.125V33.538a10.014,10.014,0,0,0,.705,3.838,11.21,11.21,0,0,0,10.084,6.7,10.951,10.951,0,0,0,9.47-5.019,2.341,2.341,0,0,0,.181-2.52c-.205-.635-1.021-.794-1.407.046a9.656,9.656,0,0,1-8.312,5.384c-4.246.159-8.312-3.746-8.676-8.266a9,9,0,0,1,8.949-9.446c5.476.092,7.358,4.044,8.2,5.473s3.225,5.565,4.792,8.106,3.725,5.9,9.857,6.132,9.023-4.593,9.636-5.65a2.1,2.1,0,0,0-.595-2.539c-.512-.512-.785.034-1.091.681Z" transform="translate(-0.499 -1.727)"/><path class="c" d="M14.451,117.143a32.975,32.975,0,0,1,3.477-.153,7.734,7.734,0,0,1,3.55.607,1.561,1.561,0,0,1,.932,1.643,2.372,2.372,0,0,1-1.352,1.689,8.833,8.833,0,0,1-4.047.794c-.423,0-.806-.012-1.095-.043l-.478,2.8H13.2l1.254-7.34Zm1.646,3.464a7.446,7.446,0,0,0,1.091.055c1.689,0,2.8-.5,2.949-1.367.141-.828-.739-1.269-2.3-1.269a10.385,10.385,0,0,0-1.315.067l-.429,2.517Zm10.832-3.566h2.26l-1.076,6.3H33.2L33,124.48H25.66l1.269-7.438Zm12.892,5.332L38.4,124.48h-2.33l5.236-7.438h2.882l2.75,7.438H44.512l-.76-2.106H39.824Zm3.719-1.027-.659-1.833c-.162-.454-.276-.96-.386-1.389h-.037c-.258.429-.53.95-.825,1.389l-1.266,1.833h3.176Zm8.514,3.133.53-3.1-3.17-4.338h2.569l1.162,1.91c.328.552.567.972.812,1.478h.037c.392-.475.822-.938,1.337-1.478l1.812-1.91h2.551l-4.847,4.3-.537,3.133H52.054Zm17.193-3.3H64.584l-.374,2.186h5.212l-.19,1.116H61.76l1.269-7.438h7.2l-.19,1.116H65.1l-.328,1.919h4.663l-.19,1.1Zm5.427-4.038c.858-.089,2.137-.153,3.44-.153a8.045,8.045,0,0,1,3.716.595,1.377,1.377,0,0,1,.809,1.49c-.166.96-1.358,1.61-2.557,1.864l-.006.034a1.863,1.863,0,0,1,1.481,1.435,9.1,9.1,0,0,0,.619,2.076h-2.33a6.39,6.39,0,0,1-.527-1.754c-.184-.972-.717-1.282-2-1.3H76.182l-.521,3.057H73.423l1.254-7.34Zm1.677,3.29h1.34c1.524,0,2.56-.484,2.686-1.226.141-.816-.751-1.193-2.22-1.193a10.838,10.838,0,0,0-1.407.067l-.4,2.352Z" transform="translate(0 -71.872)"/></g></svg>