<svg xmlns="http://www.w3.org/2000/svg" xmlns:xlink="http://www.w3.org/1999/xlink" width="218.591" height="42.944" viewBox="0 0 218.591 42.944"><defs><style>.a{fill:none;}.b{clip-path:url(#a);}.c{fill:#074289;}.d{fill:#83cee3;}.e{fill:#cce92c;}.f{fill:#f9b315;}</style><clipPath id="a"><rect class="a" width="218.591" height="42.944" transform="translate(0 0)"/></clipPath></defs><g transform="translate(0 0)"><g class="b" transform="translate(0 0)"><path class="c" d="M135.414,18.452v7.393h11.247V18.452a3.463,3.463,0,0,1,.711-2.376,2.391,2.391,0,0,1,1.869-.792,2.479,2.479,0,0,1,1.9.784,3.4,3.4,0,0,1,.728,2.385v20.33a3.4,3.4,0,0,1-.737,2.394,2.472,2.472,0,0,1-1.895.793,2.371,2.371,0,0,1-1.877-.8,3.525,3.525,0,0,1-.7-2.385V30.1H135.414v8.677a3.407,3.407,0,0,1-.737,2.394,2.473,2.473,0,0,1-1.9.793,2.372,2.372,0,0,1-1.877-.8,3.527,3.527,0,0,1-.7-2.385V18.452a3.521,3.521,0,0,1,.693-2.376,2.379,2.379,0,0,1,1.886-.792,2.48,2.48,0,0,1,1.9.784,3.4,3.4,0,0,1,.728,2.385" transform="translate(-70.508 -8.276)"/><path class="c" d="M201.223,47.7v-.616a10.7,10.7,0,0,1-1.807,1.831,6.655,6.655,0,0,1-2.07,1.1,8.379,8.379,0,0,1-2.562.36,6.612,6.612,0,0,1-3.114-.721,5.258,5.258,0,0,1-2.131-1.989,8.818,8.818,0,0,1-.895-4.4V33.74a3.111,3.111,0,0,1,.649-2.156,2.213,2.213,0,0,1,1.72-.713,2.277,2.277,0,0,1,1.755.722,3.067,3.067,0,0,1,.667,2.147v7.692a11.911,11.911,0,0,0,.281,2.807,3.37,3.37,0,0,0,1.009,1.778,2.876,2.876,0,0,0,1.974.643,4.005,4.005,0,0,0,2.281-.722,4.209,4.209,0,0,0,1.562-1.883,15.18,15.18,0,0,0,.4-4.471V33.74a3.063,3.063,0,0,1,.667-2.147,2.254,2.254,0,0,1,1.737-.722,2.213,2.213,0,0,1,1.719.713,3.115,3.115,0,0,1,.649,2.156V47.662a2.976,2.976,0,0,1-.623,2.059,2.211,2.211,0,0,1-3.229-.027,2.884,2.884,0,0,1-.64-2" transform="translate(-102.155 -16.717)"/><path class="c" d="M250.532,44.124a5.573,5.573,0,0,1-3.816,5.553,12.753,12.753,0,0,1-4.588.73,11.158,11.158,0,0,1-4.422-.792,6.435,6.435,0,0,1-2.72-1.98,4,4,0,0,1-.877-2.385,1.849,1.849,0,0,1,.561-1.355,1.924,1.924,0,0,1,1.421-.563,1.655,1.655,0,0,1,1.158.37,4.059,4.059,0,0,1,.772,1.038,4.6,4.6,0,0,0,4.562,2.552,4.033,4.033,0,0,0,2.36-.643,1.808,1.808,0,0,0,.921-1.469,2,2,0,0,0-.956-1.849,11.819,11.819,0,0,0-3.15-1.109,26.067,26.067,0,0,1-4.027-1.294,6.629,6.629,0,0,1-2.483-1.787,4.1,4.1,0,0,1-.93-2.728,4.824,4.824,0,0,1,.86-2.728,5.9,5.9,0,0,1,2.535-2.051,9.685,9.685,0,0,1,4.044-.766,13.251,13.251,0,0,1,3.343.387,8.321,8.321,0,0,1,2.474,1.038,5.121,5.121,0,0,1,1.509,1.443,2.832,2.832,0,0,1,.518,1.549,1.793,1.793,0,0,1-.553,1.355,2.186,2.186,0,0,1-1.57.528,1.922,1.922,0,0,1-1.255-.422,8.3,8.3,0,0,1-1.184-1.267,4.341,4.341,0,0,0-1.281-1.127,4.03,4.03,0,0,0-2-.422,3.909,3.909,0,0,0-2.158.554,1.619,1.619,0,0,0-.86,1.382,1.5,1.5,0,0,0,.632,1.241,5.232,5.232,0,0,0,1.7.8q1.07.316,2.948.774a15.744,15.744,0,0,1,3.64,1.3,6.052,6.052,0,0,1,2.141,1.787,3.969,3.969,0,0,1,.729,2.35" transform="translate(-126.776 -16.717)"/><path class="c" d="M283.331,18.2v7.129a10.257,10.257,0,0,1,1.781-1.673,6.4,6.4,0,0,1,1.921-.924,8.027,8.027,0,0,1,2.264-.308,6.625,6.625,0,0,1,3.237.774,6.018,6.018,0,0,1,2.9,4.18,15.315,15.315,0,0,1,.175,2.456v9.206a3.185,3.185,0,0,1-.658,2.182,2.222,2.222,0,0,1-1.745.74q-2.369,0-2.369-2.922V30.931a7.463,7.463,0,0,0-.684-3.547,2.7,2.7,0,0,0-2.6-1.241,3.887,3.887,0,0,0-2.308.73,4.4,4.4,0,0,0-1.535,2,12.81,12.81,0,0,0-.386,3.82v6.354a3.257,3.257,0,0,1-.64,2.174,2.22,2.22,0,0,1-1.781.748q-2.369,0-2.368-2.922V18.2a3.307,3.307,0,0,1,.623-2.192,2.171,2.171,0,0,1,1.746-.73,2.234,2.234,0,0,1,1.781.739,3.253,3.253,0,0,1,.64,2.183" transform="translate(-150.838 -8.276)"/><path class="d" d="M330.409,33.563v.581a9.472,9.472,0,0,1,2.808-2.455,6.853,6.853,0,0,1,3.3-.784,7.621,7.621,0,0,1,4.071,1.144,7.879,7.879,0,0,1,2.939,3.344A11.715,11.715,0,0,1,344.6,40.6a12.757,12.757,0,0,1-.623,4.075,9.137,9.137,0,0,1-1.711,3.115,7.471,7.471,0,0,1-2.57,1.936,7.573,7.573,0,0,1-3.185.678,6.662,6.662,0,0,1-3.448-.828,9.867,9.867,0,0,1-2.658-2.429v7.217q0,3.168-2.3,3.168a1.842,1.842,0,0,1-1.79-.818,5.173,5.173,0,0,1-.438-2.385V33.6a3.028,3.028,0,0,1,.6-2.05,2.061,2.061,0,0,1,1.632-.678,2.152,2.152,0,0,1,1.658.7,2.847,2.847,0,0,1,.64,2m9.387,6.988a8.333,8.333,0,0,0-.579-3.265,4.778,4.778,0,0,0-1.606-2.094,3.83,3.83,0,0,0-2.272-.731A4.258,4.258,0,0,0,332,36.027a6.855,6.855,0,0,0-1.36,4.612,6.693,6.693,0,0,0,1.351,4.462,4.222,4.222,0,0,0,3.351,1.593,3.838,3.838,0,0,0,2.211-.7,4.777,4.777,0,0,0,1.632-2.086,8.294,8.294,0,0,0,.614-3.362" transform="translate(-176.474 -16.717)"/><path class="d" d="M375.1,39.045V18.2a3.251,3.251,0,0,1,.64-2.183,2.17,2.17,0,0,1,1.728-.739,2.265,2.265,0,0,1,1.755.73,3.156,3.156,0,0,1,.667,2.192v20.84a3.129,3.129,0,0,1-.675,2.191,2.272,2.272,0,0,1-1.746.73,2.161,2.161,0,0,1-1.711-.757,3.2,3.2,0,0,1-.658-2.165" transform="translate(-203.126 -8.276)"/><path class="d" d="M407.221,47.656a14.8,14.8,0,0,1-3.36,2.033,9.366,9.366,0,0,1-3.64.678,6.888,6.888,0,0,1-3.238-.73,5.334,5.334,0,0,1-2.149-1.98,5.147,5.147,0,0,1-.755-2.711,4.864,4.864,0,0,1,1.246-3.362,6.227,6.227,0,0,1,3.422-1.866q.456-.106,2.263-.475t3.1-.678q1.29-.307,2.8-.748a5.028,5.028,0,0,0-.763-2.79q-.675-.889-2.8-.889a5.818,5.818,0,0,0-2.746.51,4.471,4.471,0,0,0-1.579,1.531,16.292,16.292,0,0,1-.93,1.347,1.522,1.522,0,0,1-1.167.326,2.036,2.036,0,0,1-1.395-.519A1.692,1.692,0,0,1,394.939,36a4.073,4.073,0,0,1,.895-2.464,6.4,6.4,0,0,1,2.79-1.971,12.533,12.533,0,0,1,4.72-.775,13.321,13.321,0,0,1,4.966.748,4.625,4.625,0,0,1,2.553,2.368,10.385,10.385,0,0,1,.745,4.295q0,1.69-.009,2.869t-.026,2.622a9.694,9.694,0,0,0,.447,2.825,8.953,8.953,0,0,1,.448,1.892,1.773,1.773,0,0,1-.693,1.347,2.32,2.32,0,0,1-1.571.607,2.114,2.114,0,0,1-1.456-.7,10.294,10.294,0,0,1-1.527-2.015m-.315-6.953a24.083,24.083,0,0,1-3.062.818q-2.009.432-2.781.634a3.786,3.786,0,0,0-1.474.792,2.032,2.032,0,0,0-.7,1.645,2.44,2.44,0,0,0,.825,1.857,3.045,3.045,0,0,0,2.158.766,5.6,5.6,0,0,0,2.623-.625,4.163,4.163,0,0,0,1.764-1.611,7.381,7.381,0,0,0,.649-3.591Z" transform="translate(-213.405 -16.675)"/><path class="d" d="M443.794,51.006l.439-1.074-5.9-14.891a5.579,5.579,0,0,1-.544-1.866,2.189,2.189,0,0,1,.316-1.144,2.353,2.353,0,0,1,.868-.845,2.279,2.279,0,0,1,1.149-.317,1.877,1.877,0,0,1,1.562.66,6.115,6.115,0,0,1,.93,1.892l4.052,11.829,3.843-11a19,19,0,0,1,.825-2.095,2.464,2.464,0,0,1,.78-1.021,2.164,2.164,0,0,1,1.167-.264,2.119,2.119,0,0,1,1.816,1.074,2.122,2.122,0,0,1,.272,1.038q-.071.334-.228.95t-.387,1.25l-6.246,16.4a19.228,19.228,0,0,1-1.579,3.4,5.206,5.206,0,0,1-2.044,1.893,7.508,7.508,0,0,1-3.431.66,8.322,8.322,0,0,1-3.158-.458,1.67,1.67,0,0,1-1.052-1.672,1.627,1.627,0,0,1,.5-1.276,2.157,2.157,0,0,1,1.483-.449,2.714,2.714,0,0,1,.754.106,3.59,3.59,0,0,0,.79.105,2.847,2.847,0,0,0,1.3-.246,2.278,2.278,0,0,0,.85-.854,13.1,13.1,0,0,0,.869-1.787" transform="translate(-236.783 -16.717)"/><path class="e" d="M68.444,9.645V6.138C68.444,2.7,71.925,0,76.1,0S83.54,3.362,83.54,6.317V35.812c0,5.2-4.585,7.132-7.641,7.132s-7.437-2.7-7.437-7.234v-2.7c3.413,0,7.285-3.668,7.285-6.877V16.607a7.053,7.053,0,0,0-7.3-6.962" transform="translate(-37.064 0)"/><path class="f" d="M15.1,9.645V6.138C15.1,2.7,11.614,0,7.437,0S0,3.362,0,6.317V35.812c0,5.2,4.585,7.132,7.641,7.132s7.437-2.7,7.437-7.234v-2.7c-3.413,0-7.285-3.668-7.285-6.877V16.607a7.053,7.053,0,0,1,7.3-6.962" transform="translate(0 0)"/><path class="d" d="M35.852,28.177V40.5a4.327,4.327,0,0,0,6.5,3.74l10.409-6.056a4.327,4.327,0,0,0,.056-7.447L42.412,24.47a4.327,4.327,0,0,0-6.56,3.707" transform="translate(-19.415 -12.911)"/></g></g></svg>