<svg xmlns="http://www.w3.org/2000/svg" xmlns:xlink="http://www.w3.org/1999/xlink" width="122.866" height="46.728" viewBox="0 0 122.866 46.728"><defs><style>.a{fill:url(#a);}.b{fill:#4cae13;}.c{fill:url(#b);}</style><linearGradient id="a" x1="0.101" y1="0.014" x2="0.896" y2="1.174" gradientUnits="objectBoundingBox"><stop offset="0"/><stop offset="0.44"/><stop offset="0.45" stop-color="#0b1802"/><stop offset="0.48" stop-color="#1c3d05"/><stop offset="0.51" stop-color="#2c5d07"/><stop offset="0.55" stop-color="#38780a"/><stop offset="0.59" stop-color="#438e0b"/><stop offset="0.64" stop-color="#4b9f0d"/><stop offset="0.69" stop-color="#50ab0e"/><stop offset="0.78" stop-color="#54b20e"/><stop offset="1" stop-color="#55b40f"/></linearGradient><linearGradient id="b" x1="0.5" y1="0.019" x2="0.5" y2="1.019" gradientUnits="objectBoundingBox"><stop offset="0" stop-color="#0b741f"/><stop offset="0.33" stop-color="#49a919"/><stop offset="0.64" stop-color="#7dd515"/><stop offset="0.87" stop-color="#9df012"/><stop offset="1" stop-color="#a9fb12"/></linearGradient></defs><g transform="translate(0 0.003)"><g transform="translate(0 -0.003)"><path d="M105.1.059c15.661-1.045,19.8,11.325,16.906,17.991,0,0-5.141,13.052-7.791,19.958-4.057,8.031-8.955,8.862-17.415,8.7L0,43.228S89.964,41.9,97.795,41.9s9.275-1.887,11.725-7.671c0,0,4.579-11.645,6.866-17.628S113.829,5.32,106.761,5.32L16.919,2.964Z" transform="translate(0 0.003)"/><path class="a" d="M147.294,39.367h16.357V45.5H154.2a1.977,1.977,0,0,0-1.794,2.223,2.127,2.127,0,0,0,2.321,1.772c3.977-.3,8.654,2.25,8.814,7.809a7.869,7.869,0,0,1-7.871,8.193h-9.358V59.351h9.456a1.728,1.728,0,0,0,1.786-1.908,1.88,1.88,0,0,0-1.687-1.927,8.519,8.519,0,0,1-9-5.16,8.336,8.336,0,0,1,.261-6.3c.261-.28.12-.352-.171-.352s-2.353.029-2.353.029l2.676-4.363Zm43.1,12.985A13.012,13.012,0,1,1,177.382,39.34,13.013,13.013,0,0,1,190.394,52.352Zm-5.944,0a7.068,7.068,0,1,0-7.068,7.068A7.067,7.067,0,0,0,184.451,52.352Zm17.642,7.282c-3.105-.027-5.514-3.667-5.514-6.533V33.45l-6.772-.12-2.591,4.376h3.313V54.071c.027,5.107,4.766,11.506,11.082,11.506h4.766V59.634h-4.283Z" transform="translate(-106.067 -24.446)"/><g transform="translate(40.462 12.773)"><path class="b" d="M153.9,47.92v.36h-.837v1.477h-.418V48.28h-.837v-.36Z" transform="translate(-151.81 -47.92)"/><path class="b" d="M162.792,50.02,162.1,51.3h-.346l-.688-1.277h.37l.493.9.488-.9Z" transform="translate(-158.602 -49.46)"/><path class="b" d="M174.824,50.158a.462.462,0,0,1,.128.144.33.33,0,0,1,.045.173.34.34,0,0,1-.048.173.493.493,0,0,1-.128.141.647.647,0,0,1-.192.1.762.762,0,0,1-.237.035h-.778V51.3h-.344V50.03h1.122a.762.762,0,0,1,.237.035.663.663,0,0,1,.195.1Zm-.245.453a.16.16,0,0,0,.072-.136.146.146,0,0,0-.021-.077.2.2,0,0,0-.056-.061.265.265,0,0,0-.083-.04.3.3,0,0,0-.1-.013h-.778v.384h.778a.307.307,0,0,0,.184-.053Z" transform="translate(-167.55 -49.468)"/><path class="b" d="M182.3,51.289H180.57V50.01h.344v1.021H182.3Z" transform="translate(-172.905 -49.453)"/><path class="b" d="M188.468,50.01l.682,1.279h-.376l-.1-.189h-.784l-.1.189h-.376l.68-1.279h.376Zm.069.832-.256-.482-.259.482Z" transform="translate(-177.922 -49.453)"/><path class="b" d="M196.162,50.02l-.69.674V51.3h-.346v-.605l-.685-.674h.434l.432.416.418-.416Z" transform="translate(-183.078 -49.46)"/><path class="b" d="M202.1,50.273v.253h.722v.256H202.1v.259h1.389V51.3h-1.73V50.02h1.73v.251H202.1Z" transform="translate(-188.447 -49.46)"/><path class="b" d="M209.53,50.013h1.213a.854.854,0,0,1,.205.048.529.529,0,0,1,.165.1.5.5,0,0,1,.109.131.306.306,0,0,1,.04.149v.035a.286.286,0,0,1-.019.1.423.423,0,0,1-.056.1.53.53,0,0,1-.085.088.5.5,0,0,1-.109.067l.277.458h-.381l-.232-.389h-.776v.389h-.349V50.01Zm.349.632h.776a.422.422,0,0,0,.1-.013.34.34,0,0,0,.083-.04.176.176,0,0,0,.056-.061.151.151,0,0,0,.021-.075.141.141,0,0,0-.021-.072.213.213,0,0,0-.059-.061.284.284,0,0,0-.085-.043.306.306,0,0,0-.1-.016h-.776v.384Z" transform="translate(-194.146 -49.453)"/></g><path class="c" d="M43.727,31.214A17.88,17.88,0,0,0,24.236,22.8c-1.079.237-1.125.285-1.127,1.335,0,.61.021,1.223-.011,1.834-.029.52.195.554.648.4A14.468,14.468,0,0,1,39.14,30.457a14.416,14.416,0,0,1-.163,19.323,14.068,14.068,0,0,1-8.065,4.392c-.645.112-.714.04-.709-.568q.024-4.142.029-8.281a.771.771,0,0,0-.49-.818,3.749,3.749,0,0,0-2.665-.029.72.72,0,0,0-.536.773c.024,1.4.011,2.8.011,4.2v4.259c0,.323-.027.605-.522.522a13.712,13.712,0,0,1-5.379-1.986,14.2,14.2,0,0,1-6.7-10.7A13.337,13.337,0,0,1,16.685,31.6a3.39,3.39,0,0,0,.816-2.564c-.069-.7,0-1.418-.021-2.127-.005-.195.155-.48-.131-.576-.245-.083-.421.155-.581.3A18.87,18.87,0,0,0,12.349,32.4a18,18,0,0,0-1.378,11.024,16.038,16.038,0,0,0,2.617,6.386,17.577,17.577,0,0,0,9.55,7.135,16.91,16.91,0,0,0,10.048.1,17.458,17.458,0,0,0,12.66-14.382,17.945,17.945,0,0,0-.08-5.922,15.525,15.525,0,0,0-2.042-5.53Z" transform="translate(-7.828 -16.386)"/><path d="M46.25,45.727c.461.216.578.067.6-.376a3.635,3.635,0,0,0-1.429-3.11,7.106,7.106,0,0,1-1.4-9.158,7.228,7.228,0,0,1,11.607-.938,7.017,7.017,0,0,1-.69,10.067A3.411,3.411,0,0,0,53.6,45.341c.048.453.141.552.6.349a9.4,9.4,0,0,0,4.326-3.857,9.25,9.25,0,0,0,1.093-7.29A9.075,9.075,0,0,0,54.369,28.1a9.539,9.539,0,0,0-9.72.77c-.136.088-.267.237-.45.168-.232-.088-.155-.3-.155-.469-.005-.829,0-1.655,0-2.484-.005-2.167,0-4.336-.024-6.5-.011-1.1-.546-1.583-1.719-1.607-.36-.008-.725.027-1.082-.005-.565-.051-.762.109-.757.677.032,3.172.016,6.346.016,9.52,0,2.524.048,5.048-.019,7.567a12.421,12.421,0,0,0,.52,4.254,9.437,9.437,0,0,0,5.275,5.744Z" transform="translate(-29.67 -13.17)"/><path d="M66.08,80.755a2.914,2.914,0,0,0,5.826.051,2.885,2.885,0,0,0-2.945-2.945,2.947,2.947,0,0,0-2.881,2.892Z" transform="translate(-48.468 -57.107)"/></g></g></svg>