<svg xmlns="http://www.w3.org/2000/svg" xmlns:xlink="http://www.w3.org/1999/xlink" width="97.09" height="44.282" viewBox="0 0 97.09 44.282"><defs><style>.a{fill:url(#a);}.b{fill:url(#b);}.c{fill:#999;}</style><linearGradient id="a" x1="-0.005" y1="0.5" x2="0.995" y2="0.5" gradientUnits="objectBoundingBox"><stop offset="0" stop-color="#8b0d11"/><stop offset="0.05" stop-color="#991116"/><stop offset="0.16" stop-color="#b1171e"/><stop offset="0.28" stop-color="#c41c24"/><stop offset="0.43" stop-color="#d12028"/><stop offset="0.61" stop-color="#d8222b"/><stop offset="1" stop-color="#db232c"/></linearGradient><linearGradient id="b" x1="0" y1="0.5" x2="1" y2="0.5" xlink:href="#a"/></defs><g transform="translate(0.001)"><g transform="translate(-0.001 0)"><path class="a" d="M29.082,146.741a11.755,11.755,0,0,0,1.063,1.505,7.233,7.233,0,0,0,2.376,1.8,7.06,7.06,0,0,0,2.731.693,7.424,7.424,0,0,0,7.006-4.053,7.054,7.054,0,0,0,.74-3.963A7.372,7.372,0,0,0,29.281,139.7a7.611,7.611,0,0,0-.906,2.564,15.926,15.926,0,0,0-.084,1.779,16.117,16.117,0,0,1-.514,3.105,13.9,13.9,0,0,1-4.052,6.573,13.62,13.62,0,0,1-3.036,2.122,14.845,14.845,0,0,1-3.286,1.2,15.629,15.629,0,0,1-3.911.356,11.554,11.554,0,0,1-2.5-.35,15.946,15.946,0,0,1-2.433-.779,13.087,13.087,0,0,1-2.778-1.576,13.92,13.92,0,0,1-3.342-3.465A15.006,15.006,0,0,1,.79,147.949,18.132,18.132,0,0,1,.1,145.11a7.258,7.258,0,0,1-.1-1.335Q-.006,132.462,0,121.152c0-.46.018-.5.475-.46a7.025,7.025,0,0,1,2.844.854,6.682,6.682,0,0,1,2.665,2.707,6.966,6.966,0,0,1,.685,1.982,11.673,11.673,0,0,1,.116,2.245c.006,4.3.006,14.328,0,14.5a7.884,7.884,0,0,0,.259,2.387,7.395,7.395,0,0,0,13.726,1.247,8.777,8.777,0,0,0,.782-3.993,11.746,11.746,0,0,1,.493-3.011,14.22,14.22,0,0,1,1.138-2.851,14.118,14.118,0,0,1,5.421-5.62,14.415,14.415,0,0,1,2.855-1.25,13.737,13.737,0,0,1,4.4-.639,12.205,12.205,0,0,1,2.483.261,13.689,13.689,0,0,1,4.941,1.945A14.371,14.371,0,0,1,47.4,135.5,13.786,13.786,0,0,1,49.04,138.8a15.284,15.284,0,0,1,.738,3.684,13.688,13.688,0,0,1-.283,3.879,14.325,14.325,0,0,1-5.039,8.1,13.733,13.733,0,0,1-3.264,1.952,12.888,12.888,0,0,1-3.342.951,14.874,14.874,0,0,1-3.772.062,16.364,16.364,0,0,1-2.859-.612,12.328,12.328,0,0,1-1.975-.833,15.58,15.58,0,0,1-3.342-2.355c-.182-.164-.251-.305-.052-.526a12.958,12.958,0,0,0,1.833-2.687,13.286,13.286,0,0,0,1.209-3.118c.04-.171.112-.334.189-.558Z" transform="translate(0.001 -113.241)"/><path class="b" d="M140.866,271.9c-.181-.266-.342-.5-.5-.738a7.133,7.133,0,0,0-3.726-2.824,7.42,7.42,0,0,0-4.121-.17,7.2,7.2,0,0,0-4.227,2.823c-.054.073-.091.207-.19.181-.132-.034-.074-.178-.074-.273q0-3.952,0-7.9a.473.473,0,0,1,.337-.483,12.526,12.526,0,0,1,2.457-.875,14.09,14.09,0,0,1,2.961-.417,15.106,15.106,0,0,1,3.629.358,14.056,14.056,0,0,1,4.395,1.8,15.144,15.144,0,0,1,2.183,1.672c.189.17.221.3.047.5a14.562,14.562,0,0,0-2.038,3.206,14.281,14.281,0,0,0-.964,2.68c-.034.141-.1.274-.163.462Z" transform="translate(-120.123 -245.118)"/><circle class="c" cx="3.507" cy="3.507" r="3.507" transform="translate(0)"/><path class="c" d="M486.5,419.1v2.031h1.511v1.625H486.5v2.568c0,.856.194,1.248.832,1.248a3.3,3.3,0,0,0,.624-.058l.014,1.669a3.968,3.968,0,0,1-1.373.189,2.139,2.139,0,0,1-1.58-.609,3.033,3.033,0,0,1-.583-2.1v-2.9h-.9v-1.625h.9v-1.538l2.066-.493Z" transform="translate(-453.725 -393.267)"/><path class="c" d="M567.7,452.05l.915,3.293A17.121,17.121,0,0,1,569,457.07h.042c.111-.581.222-1.117.374-1.727l.873-3.293h2.218l-2.524,7.094h-2.107l-2.467-7.094Z" transform="translate(-530.558 -424.186)"/><path class="b" d="M695.842,279.223v-3.832c-.293-5.068-7.2-5.969-9.738-6.115a1.939,1.939,0,1,1-.021-3.874h20.8l5.675-7.372h-26.3c-5.424.042-10.911,2.345-10.576,10.01,0,3.79,4.167,6.89,9.738,6.974,2.869.272,2.807,4-.4,4.084H665.106a15,15,0,0,1-8.476,7.309h28.279c6.115,0,10.932-2.911,10.932-7.183Z" transform="translate(-616.155 -242.125)"/><path class="b" d="M1232.416,440.47h-12.23c2.282.859,4.67,2.681,4.8,5.7h5.34c3.518,0,3.267,4.1.439,4.1h-5.78a7.381,7.381,0,0,1-5.591,7.33h11.016c6.3,0,10.911-3.309,10.911-8.377s-2.408-8.754-8.9-8.754Z" transform="translate(-1144.226 -413.319)"/><path class="b" d="M734.918,272.407a15.032,15.032,0,0,1-.248,2.724H747.7a7.145,7.145,0,0,1-4.844-5.549H742.5s-2.786.021-5.612.021c-2.374,0-3.078-4.1.44-4.1h5.535a8.049,8.049,0,0,1,5.787-7.3H737.792c-4.3,0-6.6,1.068-8.434,2.4a1.264,1.264,0,0,0-.1.092,14.923,14.923,0,0,1,5.658,11.712Z" transform="translate(-684.308 -242.285)"/><path class="c" d="M217.631,446.607c0-.829-.026-1.542-.051-2.125h1.689l.089.881h.026a2.391,2.391,0,0,1,2.086-1.023c1.369,0,2.6,1.2,2.6,3.226,0,2.306-1.446,3.394-2.841,3.394a1.932,1.932,0,0,1-1.625-.725h-.026v3.148h-1.945Zm1.945,1.49a2.015,2.015,0,0,0,.038.415,1.181,1.181,0,0,0,1.139.933c.844,0,1.344-.713,1.344-1.788,0-1.01-.448-1.775-1.318-1.775a1.225,1.225,0,0,0-1.164,1,1.521,1.521,0,0,0-.038.349v.868Z" transform="translate(-204.168 -416.951)"/><path class="c" d="M162.765,402.887a.982.982,0,0,1-1.049.984.942.942,0,0,1-1.011-.984.956.956,0,0,1,1.024-1,.982.982,0,0,1,1.037,1Zm-2.009,8.1v-6.335H162.7v6.335Z" transform="translate(-150.799 -377.117)"/></g></g></svg>