<svg xmlns="http://www.w3.org/2000/svg" xmlns:xlink="http://www.w3.org/1999/xlink" width="53.975" height="57.232" viewBox="0 0 53.975 57.232"><defs><style>.a{fill:url(#a);}.b{fill:url(#b);}.c{fill:url(#c);}.d{fill:url(#d);}</style><linearGradient id="a" x1="0.505" y1="0.971" x2="0.492" y2="-0.009" gradientUnits="objectBoundingBox"><stop offset="0.05"/><stop offset="1" stop-color="#db0010"/></linearGradient><linearGradient id="b" x1="0.431" y1="0.945" x2="0.51" y2="-0.023" xlink:href="#a"/><linearGradient id="c" x1="0.516" y1="0.969" x2="0.499" y2="0.044" xlink:href="#a"/><linearGradient id="d" x1="0.504" y1="0.991" x2="0.499" y2="-0.095" xlink:href="#a"/></defs><g transform="translate(0 0.002)"><path d="M149.547,43.4c.379-.16.755-.317,1.134-.479l7-3a4.55,4.55,0,0,0,.466-.206,1.032,1.032,0,0,1,1.071-.019c.453.228.935.4,1.444.605-.568.241-1.1.468-1.635.7l-6.145,2.626-6.29,2.688c-1.153.492-2.309.98-3.46,1.477a.605.605,0,0,1-.542.007c-.659-.29-1.329-.551-2.032-.839.382-.243.733-.47,1.086-.692q2.16-1.364,4.323-2.727,4.318-2.726,8.631-5.457a.522.522,0,0,1,.566-.043c.536.243,1.09.453,1.672.69l-7.309,4.635c.006.013.013.026.019.039Z" transform="translate(-114.471 -30.929)"/><path d="M103.76,31.648c4.811-2.495,9.59-4.971,14.418-7.473l-1.127-.466c-.143-.059-.288-.117-.431-.18-.039-.017-.089-.043-.1-.076-.017-.052.045-.067.082-.087.447-.232.9-.462,1.342-.7a.322.322,0,0,1,.3.028q1.779.727,3.554,1.459l1.889.78c.032.013.063.032.137.069-.137.076-.241.137-.347.193-.368.191-.739.377-1.106.572a.275.275,0,0,1-.265.019c-.462-.2-.935-.375-1.394-.581a.459.459,0,0,0-.451.026q-3.235,1.684-6.476,3.36-3.756,1.946-7.51,3.9a.455.455,0,0,1-.449.026c-.627-.275-1.268-.522-1.9-.781a1.836,1.836,0,0,1-.161-.089Z" transform="translate(-84.501 -18.441)"/><path d="M57.486.919c-.026.074-.1.087-.156.117L54.015,2.755,44.052,7.924c-.789.41-1.58.815-2.368,1.229a.37.37,0,0,1-.355.017c-.633-.269-1.271-.529-1.908-.791-.061-.024-.156-.03-.163-.1-.009-.087.095-.1.154-.128q3.238-1.676,6.474-3.35Q50.46,2.432,55.025.062a.48.48,0,0,1,.457-.011c.62.265,1.245.516,1.869.772.052.02.119.022.135.095Z" transform="translate(-31.97 0)"/><path d="M77.792,9.464a2.293,2.293,0,0,0-.729-.538c-1.077-.512-2.2-.919-3.3-1.385a.291.291,0,0,0-.273.03l-5.782,3q-4.9,2.539-9.808,5.08a.685.685,0,0,0-.264.161.543.543,0,0,0,.23.126c.52.215,1.054.4,1.557.648a.943.943,0,0,0,.958-.043c3.011-1.578,6.032-3.133,9.048-4.7a.426.426,0,0,1,.4-.013c.3.123.6.251.913.343a7.2,7.2,0,0,0,3.727.193,5.64,5.64,0,0,0,1.253-.566c.62-.316,1.245-.624,1.852-.963a.808.808,0,0,0,.213-1.368ZM75.058,10c-.57.3-1.141.6-1.713.893-.163.085-.332.165-.5.252a1.011,1.011,0,0,1-.536.11A2.144,2.144,0,0,1,71.444,11c-.052-.022-.132-.028-.135-.095s.08-.076.128-.1c.807-.421,1.639-.8,2.415-1.273a1.054,1.054,0,0,1,1.164.026.581.581,0,0,1,.058.033c.217.147.217.284-.015.4Z" transform="translate(-46.942 -6.125)"/><path class="a" d="M121.4,110.5q0-7.993,0-15.988a.487.487,0,0,0-.306-.535q-2.653-1.214-5.29-2.461a.627.627,0,0,0-.611.007c-.78.386-1.57.746-2.352,1.132a.579.579,0,0,1-.575-.011c-.755-.38-1.524-.737-2.277-1.117a.607.607,0,0,0-.605,0q-2.726,1.317-5.462,2.606a.412.412,0,0,0-.254.451q.006,15.881,0,31.761a.509.509,0,0,0,.291.516q4.2,2.364,8.388,4.752a.516.516,0,0,0,.59-.009q4.137-2.328,8.284-4.638a.419.419,0,0,0,.232-.434q-.006-8.013,0-16.025H121.4Zm-5.72,16.877c-.941.544-1.873,1.1-2.81,1.656-.124.072-.232.148-.4.054-1.012-.588-2.031-1.167-3.048-1.752a.661.661,0,0,1-.1-.1c.006-.132.017-.265.017-.4V99.987c0-.217-.011-.434-.019-.651.095-.228.219-.061.316-.013.8.393,1.6.791,2.4,1.2a.541.541,0,0,0,.538,0c.861-.408,1.737-.789,2.6-1.2.278-.132.356-.117.36.223q.042,4.585.113,9.169.111,7.974.226,15.946c.011.761.02,1.522.046,2.283a.419.419,0,0,1-.239.432Z" transform="translate(-84.428 -74.471)"/><path class="b" d="M41.138,64.8q-6.345-2.673-12.688-5.347a.437.437,0,0,0-.379-.011q-2.937,1.289-5.876,2.571c-.134.085-.071.219-.071.329q-.006,14.622,0,29.244c0,.111-.059.245.074.33h0c.071.048.137.1.21.141q6.445,3.764,12.9,7.525c.076.045.161.158.254.085s.039-.2.037-.306q-.064-6.635-.124-13.267a1.025,1.025,0,0,0-.23-.659c-.7-.911-1.381-1.832-2.081-2.741-.139-.182-.126-.264.074-.377.629-.358,1.24-.75,1.877-1.1a.606.606,0,0,0,.36-.624c-.011-4.217-.006-8.436-.015-12.653a.467.467,0,0,1,.332-.509c1.141-.5,2.272-1.015,3.406-1.526.711-.319,1.422-.638,2.186-.984-.121-.063-.182-.1-.245-.126ZM30.278,93.89c-1.021-.464-2.045-.924-3.077-1.366-.217-.093-.23-.234-.228-.427q.006-2.79,0-5.579c0-1.847.006-3.7-.006-5.542,0-.325.065-.366.351-.217,1.008.52,2.025,1.025,3.042,1.524a.371.371,0,0,1,.238.39q-.008,5.507,0,11.014c0,.3-.078.319-.325.206ZM30.6,73.857c0,1.838-.007,3.673.006,5.511,0,.336-.078.355-.36.225-.974-.451-1.96-.885-2.946-1.31a.442.442,0,0,1-.327-.473q.017-5.493,0-10.984c0-.269.024-.381.329-.245q1.459.643,2.934,1.247a.512.512,0,0,1,.371.559c-.017,1.825-.007,3.649-.007,5.474Z" transform="translate(-18.006 -48.38)"/><path class="c" d="M207.1,73.689c0-.254-.033-.444-.286-.544h0c-.562-.414-1.114-.843-1.691-1.234-.245-.167-.239-.284-.076-.5.267-.355.5-.735.75-1.1.408-.577.815-1.156,1.227-1.732a.5.5,0,0,0,.071-.31q0-6.175,0-12.35a.3.3,0,0,0-.238-.34,15.985,15.985,0,0,1-1.572-.661c-1.136-.494-2.27-.993-3.415-1.466h0c-.269-.095-.479-.382-.824-.213-1.411.69-2.825,1.374-4.236,2.062-.059.028-.148.033-.156.161.121.052.251.108.381.161q2.614,1.075,5.23,2.144a.409.409,0,0,1,.319.438q-.014,5.71-.006,11.421a.741.741,0,0,1-.119.444c-.566.828-1.128,1.657-1.68,2.495-.121.182-.21.173-.368.05-.419-.325-.843-.651-1.283-.947a.662.662,0,0,1-.308-.631c.009-3.783,0-7.565.013-11.348a.524.524,0,0,0-.353-.566c-1.739-.783-3.473-1.585-5.2-2.387a.546.546,0,0,0-.51-.006c-.867.4-1.741.78-2.613,1.169-.711.317-1.42.638-2.135.961.08.143.2.158.29.2,1.711.761,3.419,1.526,5.138,2.268a.534.534,0,0,1,.379.588c-.011,4.145-.006,8.291-.015,12.436a.554.554,0,0,0,.3.553c.613.364,1.206.761,1.817,1.127.193.117.2.2.089.392-.659,1.1-1.3,2.209-1.951,3.309a1.221,1.221,0,0,0-.178.648q.008,6.217,0,12.436v.3a.183.183,0,0,0,.2-.03c1.555-.858,3.105-1.722,4.666-2.569.208-.113.212-.256.21-.444q-.036-5.983-.065-11.964a.935.935,0,0,1,.084-.49c.486-.863.973-1.726,1.442-2.6.115-.215.215-.2.388-.078.455.319.913.633,1.381.934a.493.493,0,0,1,.251.471q.022,5.655.059,11.311v.677l2.289-1.294c.646-.349,1.288-.707,1.943-1.039a.55.55,0,0,0,.36-.572q-.019-5.869,0-11.74Z" transform="translate(-153.122 -43.31)"/><path class="d" d="M2.749,57.558V82.994L.028,81.426V56.237l2.723,1.32Zm.082-4.221L8.544,50.5,5.605,49.31.013,52.1,0,54.767l2.764,1.21.069-2.639Z" transform="translate(0 -40.159)"/></g></svg>