<svg xmlns="http://www.w3.org/2000/svg" xmlns:xlink="http://www.w3.org/1999/xlink" width="76.639" height="55.553" viewBox="0 0 76.639 55.553"><defs><style>.a{fill:none;}.b{clip-path:url(#a);}.c{fill:red;}</style><clipPath id="a"><rect class="a" width="76.639" height="55.553"/></clipPath></defs><g class="b"><path class="c" d="M116.828,11.23a10.589,10.589,0,0,1,8.382-2.212L123.674,7.33a.146.146,0,0,1,.147-.24c1.146.322,4.039,1.146,5.813,1.757a4.508,4.508,0,0,0-2.871-2.577,12.549,12.549,0,0,0-5.309-.823c-1.226.124-1.257.171-1.366-.2A8.16,8.16,0,0,1,120.646,0c-4.719,1.3-6.333,4.47-6.55,6.519-5.246,4.16-5.991,6.457-6.985,10.462a12.215,12.215,0,0,1,4.47-4.719c-1.925,2.2-3.135,6.116-2.639,10.648A14.34,14.34,0,0,0,123.937,35.08c-6.271-2.421-8.04-7.668-8.2-12.3a9.858,9.858,0,0,0-1.831,3.464.1.1,0,0,1-.192-.023c-.546-6.424,1.243-8.907,3.676-11.589-1.863.838-2.515,1.49-4.75,3.818a11.4,11.4,0,0,1,4.191-7.218m2.887-10.19a12.637,12.637,0,0,0-.776,3.477c-.5-.031-1.831.016-2,.419a9.939,9.939,0,0,1,2.778-3.9" transform="translate(-84.666)"/><path d="M165.329,49.381c-.605-.256-3.1-1.327-4.726-1.816a33.075,33.075,0,0,0-9.825-.792,9.824,9.824,0,0,0-8.11,5.471c2.088-1.281,3.547-1.839,5.572-1.723-4.657,3.539-5.309,6.845-5.565,9.383a8.44,8.44,0,0,1,2.771-2.817c-2.864,9.383,5.4,13.923,7.342,14.436a10.657,10.657,0,0,0,10.71-2.018,8.271,8.271,0,0,1-12.6-2.577c-1.863-4.036-.978-7.373,2.033-10.136s6.442-1.863,8.009-1.676,2.468-.854,3.151-1.77a8.445,8.445,0,0,1-3.818-1.055,9.653,9.653,0,0,1,4.1.621c.52.217.962-.574,1.777-1.575s-.21-1.7-.815-1.956m.373,1.638c-.233.171-.466.357-.466.357-.217.14-.318-.07-.559-.311a1.718,1.718,0,0,1-.357-.605s-.171-.885.59-.5c.5.326.776.543.776.543.233.186.248.341.016.512" transform="translate(-112.771 -36.94)"/><path d="M171.916,204.167v-4.914c0-.114,0-.117.1-.117h3.685a3.143,3.143,0,0,1,.977.135,2.932,2.932,0,0,1,1.92,1.881,3.791,3.791,0,0,1,.229,1.241,3.368,3.368,0,0,1-.912,2.509,3,3,0,0,1-1.346.809,3.5,3.5,0,0,1-.96.156c-.646.007-.966,0-1.612,0-.127,0-.127,0-.127.141v3.082c-.145.145-1.715,1.539-1.956,1.779,0-.167,0-.441,0-.608,0-1.474,0-4.624,0-6.1m1.958-1.674v1.4c0,.118,0,.118.1.118.536,0,.745,0,1.281,0a2.8,2.8,0,0,0,.864-.105,1.392,1.392,0,0,0,.876-.668,1.627,1.627,0,0,0,.159-.847,1.371,1.371,0,0,0-.243-.755,1.51,1.51,0,0,0-.967-.588,2.706,2.706,0,0,0-.614-.057c-.567,0-.807,0-1.373,0-.072,0-.085.031-.085.1,0,.467,0,.934,0,1.4" transform="translate(-135.891 -157.408)"/><path d="M245.17,199.273c.327,0,.654,0,.98,0a.143.143,0,0,1,.156.095c.241.569.486,1.137.731,1.706q.355.825.71,1.649.363.845.725,1.689c.012.028.021.069.063.066s.045-.045.057-.072c.211-.488.419-.978.63-1.466q.643-1.489,1.287-2.978c.089-.207.177-.414.261-.623.024-.061.07-.064.126-.064h1.466c.174,0,.349,0,.523,0,.074,0,.086.022.059.083q-.479,1.075-.953,2.15-.547,1.234-1.093,2.468-.45,1.02-.9,2.041l-1.118,2.533c-.1.222-.2.444-.3.666-.012.026-.013.072-.058.067s-.044-.045-.056-.074c-.115-.262-.229-.525-.344-.787l-1.185-2.684-1.762-3.994q-.488-1.108-.976-2.216c-.026-.058-.059-.114-.088-.17s-.021-.087.064-.086c.33,0,.66,0,.99,0Z" transform="translate(-192.95 -157.514)"/><path d="M207.244,200.6h3.116l-.761-1.863h-8.118l1.3,1.863h2.471v4.051h0q0,1.932,0,3.863c0,.114,0,.115.127.115h1.733c.123,0,.126,0,.126-.117q0-.222,0-.444c0-2.336,0-5.11,0-7.467" transform="translate(-159.261 -157.095)"/><path d="M156.37,208.979l1.956,1.816V199.037H156.37Z" transform="translate(-123.603 -157.33)"/><path class="c" d="M39.63,208.055l1.956,2.74V199.037H39.63Z" transform="translate(-31.325 -157.329)"/><path class="c" d="M106.8,202.764h-4.924v1.723h2.759a4.046,4.046,0,0,1-1.479,1.738,3.11,3.11,0,0,1-.609.162,3.946,3.946,0,0,1-1.281.028,2.674,2.674,0,0,1-1.681-1,3.049,3.049,0,0,1-.673-1.6,4.029,4.029,0,0,1,.017-1.094,3.05,3.05,0,0,1,.573-1.37,2.738,2.738,0,0,1,1.634-1.09,3.6,3.6,0,0,1,1.352,0,2.828,2.828,0,0,1,1.568.774.066.066,0,0,0,.106,0c.086-.077.176-.151.265-.225q.557-.467,1.114-.933c.057-.047.021-.074-.011-.106a4.844,4.844,0,0,0-2.691-1.426,5.658,5.658,0,0,0-1.425-.076,4.852,4.852,0,0,0-1.717.458,4.976,4.976,0,0,0-2.038,1.788,5.2,5.2,0,0,0-.836,2.559,5.253,5.253,0,0,0,1.318,3.709,4.881,4.881,0,0,0,4.693,1.528,5.172,5.172,0,0,0,1.571-.578,4.432,4.432,0,0,0,1.893-1.958l.006,0a5.2,5.2,0,0,0,.5-1.525c-.01-.314,0-1.49,0-1.49" transform="translate(-76.527 -156.714)"/><path class="c" d="M60.576,181.148v8.959a.109.109,0,0,1-.186.078l-5.8-5.707.047,12.2,1.956-2.747-.066-4.707a.1.1,0,0,1,.175-.075L62.6,195V183.2Z" transform="translate(-43.152 -143.189)"/><path class="c" d="M3.974,203.953s-.14-.031.14-.528,2.7-4.61,2.7-4.61H4.564l-2.53,4.226v-4.226H0v9.841H2.033v-3.995c.088-.007.234.048.419.363.31.528,5.293,7.683,5.293,7.683h2.422Z" transform="translate(0 -157.154)"/><path class="c" d="M288.383,200.018a7.191,7.191,0,0,1-.826,2.212c-.431,1.024-1.863,4.226-2,4.959s.338,1.2.664,1.188.442-.186.314-.512.733-1.932,1.083-2.736,1.4-3.749,2.422-4.61c.535-.512,1.094-.559,1.048.559a5.449,5.449,0,0,1-1.3,3.1c-.489.536-.664.547-.792.384s.291-.361.012-.64-.733.221-.477.745,2.084.71,3.085-.047a6.648,6.648,0,0,0,2.6-3.725c.116-.419.239-.664.483-.541a1.247,1.247,0,0,0,.763-.012c.163-.035.326-.122.122.268s-1.329,2.431-1.267,3.424.73,1.242,1.32.768a12.144,12.144,0,0,0,1.451-1.607c-.171.846.543,1.979,1.273,1.886s1.56-.993,2.057-2.111c.054-.132.093-.21.093-.21a1.915,1.915,0,0,0,1.606-.652c.148-.148.342-.287.155-.4s-.2.008-.357.186-1.024.869-1.3.535c.054-.341.38-1.133-.3-1.087s-.667.962-.427,1.063.388.233.093.73-1.04,1.638-1.49,1.444-.512-1.382.07-2.5,1.125-2.227,1.63-2.01c.2.07.2.155.093.3s-.171.512.171.473.5-.442.233-.854a1.361,1.361,0,0,0-1.824-.07,4.32,4.32,0,0,0-1.56,2.173c-.489.854-1.638,2.771-2.134,2.429-.248-.248.45-1.257.722-1.762a5.742,5.742,0,0,0,.939-2.359.771.771,0,0,0-1.273-.582c-.155.171-.869.435-1.017.124s.357-.737,0-1.164a.536.536,0,0,0-.923.07c-.171.264-.194.97.2,1.164.21.117.427.194.171.8a7.893,7.893,0,0,1-2.693,3.648c-.605.272-.667.062-.334-.233a5.294,5.294,0,0,0,1.3-2.98c-.093-1-.528-1.576-1.436-1.56-.481.031-1.118.893-1.3.761s0-.877-.737-.8c-.512,0-.4.225-.4.373" transform="translate(-225.697 -156.937)"/></g></svg>