<svg xmlns="http://www.w3.org/2000/svg" width="121.694" height="46.944" viewBox="0 0 121.694 46.944"><defs><style>.a{fill:#a41e23;}.b{fill:#030301;}.c{fill:#fff;}.d{fill:#2b2b2b;}.e{fill:#a51f20;}</style></defs><path class="a" d="M77.807,34.838A22.975,22.975,0,0,1,86.61,16.9l-73.568.095L8.28,36.79H77.9c-.056-.645-.092-1.294-.092-1.952Z" transform="translate(-5.568 -11.365)"/><path class="b" d="M96.966,0A25.416,25.416,0,0,0,81.042,5.535a22.975,22.975,0,0,0-8.8,17.938c0,.658.036,1.307.092,1.952H2.709L0,36.683H76.539A25.107,25.107,0,0,0,96.966,46.944c13.635,0,24.728-10.53,24.728-23.474S110.6,0,96.966,0Z"/><path class="a" d="M257.393,16.67c10.4,0,18.833,8.064,18.833,18.014S267.795,52.7,257.393,52.7,238.56,44.634,238.56,34.684s8.43-18.014,18.833-18.014" transform="translate(-160.426 -11.21)"/><path class="c" d="M268.677,31.56A13.138,13.138,0,1,0,282.013,44.7,13.253,13.253,0,0,0,268.677,31.56Zm0,22.344a9.209,9.209,0,1,1,9.406-9.207A9.31,9.31,0,0,1,268.677,53.9Z" transform="translate(-171.71 -21.223)"/><ellipse class="d" cx="9.406" cy="9.207" rx="9.406" ry="9.207" transform="translate(87.56 14.267)"/><path class="e" d="M286.012,60.126l4.648,3.442a.755.755,0,0,1,.19,1.009l-1.464,2.339a.755.755,0,0,1-.953.288l-5.155-2.332a.755.755,0,0,1-.344-1.064l1.968-3.452a.756.756,0,0,1,1.107-.233Z" transform="translate(-190.198 -40.331)"/><path class="c" d="M33.286,24.47a.919.919,0,0,0-.838.517,1.312,1.312,0,0,0-.1.648V38.861a1.193,1.193,0,0,0,.029.36.975.975,0,0,0,.94.7q1.12.015,2.237-.026a.874.874,0,0,0,.884-.933c-.013-.481,0-.963,0-1.441L36.4,28.852,40.19,39.1a1.4,1.4,0,0,0,1.333.911l1.936-.036a1.39,1.39,0,0,0,1.281-.911l3.8-10.261v5.558c-.01,1.33,0,2.663,0,3.993,0,.206-.016.416,0,.622a.931.931,0,0,0,.973.947c.76.023,1.523,0,2.286-.026a.808.808,0,0,0,.76-.521,1.9,1.9,0,0,0,.1-.648c.007-2.155,0-4.313,0-6.469h-.007V26.363c0-.373-.023-.743-.052-1.117a.722.722,0,0,0-.527-.685,2.4,2.4,0,0,0-.642-.111H46.875a1.018,1.018,0,0,0-.956.668L42.5,34.4l-3.557-9.269a1.023,1.023,0,0,0-.953-.655h-4.7Z" transform="translate(-21.754 -16.442)"/><g transform="translate(9.953 27.348)"><path class="c" d="M35.319,87.252c-.043-.9-.092-1.982-.085-2.787h-.026c-.193.757-.429,1.562-.714,2.45l-1,3.131h-.557l-.917-3.072c-.269-.911-.5-1.742-.655-2.509h-.016c-.016.806-.059,1.887-.108,2.853l-.151,2.768h-.7l.4-6.455h.933l.969,3.121c.236.8.429,1.5.573,2.175h.026c.144-.652.344-1.359.6-2.175l1.009-3.121h.933l.354,6.455h-.714l-.144-2.833Z" transform="translate(-30.39 -83.587)"/><path class="c" d="M55.028,87.062h-2.2v2.325H55.28v.7H52.09V83.63h3.062v.7H52.82v2.04h2.2v.688Z" transform="translate(-44.983 -83.587)"/><path class="c" d="M66.98,83.634a9.367,9.367,0,0,1,1.556-.134,3,3,0,0,1,2.3.806,3.2,3.2,0,0,1,.8,2.319,3.7,3.7,0,0,1-.816,2.509,3.242,3.242,0,0,1-2.509.93,10.824,10.824,0,0,1-1.33-.075V83.641Zm.734,5.705a3.983,3.983,0,0,0,.74.049c1.566,0,2.414-1,2.414-2.738a2.164,2.164,0,0,0-2.3-2.489,3.785,3.785,0,0,0-.858.085V89.34Z" transform="translate(-54.996 -83.5)"/><path class="c" d="M85.384,83.64V90.1H84.65V83.64Z" transform="translate(-66.879 -83.594)"/><path class="c" d="M92.606,88.065l-.59,2.031H91.26l1.926-6.455h.884L96.006,90.1h-.783l-.606-2.031Zm1.86-.652-.557-1.857c-.128-.423-.21-.806-.295-1.179H93.6c-.085.383-.177.776-.285,1.169l-.557,1.867Z" transform="translate(-71.324 -83.594)"/><path class="c" d="M116.29,83.624A7.611,7.611,0,0,1,117.7,83.5a2.139,2.139,0,0,1,1.592.537,1.86,1.86,0,0,1,.5,1.349,2.066,2.066,0,0,1-.439,1.379,2.194,2.194,0,0,1-1.733.707,2.165,2.165,0,0,1-.59-.059V90h-.734V83.621Zm.734,3.111a2.125,2.125,0,0,0,.606.066,1.277,1.277,0,0,0,1.421-1.379c0-.891-.531-1.264-1.34-1.264a2.857,2.857,0,0,0-.691.065v2.509Z" transform="translate(-88.156 -83.5)"/><path class="c" d="M132.43,83.633h.734v5.755h2.424v.7H132.43V83.63Z" transform="translate(-99.01 -83.587)"/><path class="c" d="M146.986,88.065,146.4,90.1h-.757l1.926-6.455h.884l1.936,6.455H149.6L149,88.065Zm1.86-.652-.557-1.857c-.128-.423-.21-.806-.295-1.179h-.016c-.085.383-.177.776-.285,1.169l-.557,1.867h1.71Z" transform="translate(-107.893 -83.594)"/><path class="c" d="M160.642,90.1V87.364L158.85,83.65h.832l.8,1.782c.219.488.386.881.563,1.33h.016c.16-.423.354-.842.573-1.33l.816-1.782h.832l-1.9,3.7V90.1h-.74Z" transform="translate(-116.776 -83.601)"/><path class="c" d="M181.548,87.062h-2.2v2.325H181.8v.7h-3.19V83.63h3.062v.7H179.34v2.04h2.2v.688Z" transform="translate(-130.065 -83.587)"/><path class="c" d="M193.483,83.634a6.8,6.8,0,0,1,1.405-.134,2.132,2.132,0,0,1,1.641.527,1.727,1.727,0,0,1,.445,1.225,1.682,1.682,0,0,1-1.068,1.647v.029a1.6,1.6,0,0,1,.832,1.3A11.49,11.49,0,0,0,197.178,90h-.757a9.4,9.4,0,0,1-.38-1.543c-.167-.891-.472-1.225-1.137-1.254h-.691V90h-.734V83.638Zm.734,2.941h.75a1.176,1.176,0,0,0,1.281-1.225c0-.832-.531-1.2-1.3-1.205a2.777,2.777,0,0,0-.724.075v2.355Z" transform="translate(-140.064 -83.5)"/></g><path class="c" d="M116.867,25.46a1.155,1.155,0,0,0-1.156-1.15l-7.792.029a5.773,5.773,0,0,0-5.525,4.176l-2.935,10.2a.865.865,0,0,0,.8,1.1l2.443.075a1.358,1.358,0,0,0,1.356-1.012l.721-2.738h7.739l-.1,2.7a1.115,1.115,0,0,0,1.1,1.156l2.26.036a1.114,1.114,0,0,0,1.133-1.117l-.043-13.455ZM112.5,32.79c-.013.2-.069.357-.38.364-.56.01-1.123.007-1.683.01H106.35c-.3,0-.449-.131-.452-.4,0-.288-.02-.576,0-.865.016-.262.069-.524.1-.786a3.68,3.68,0,0,1,.38-1.169,3.99,3.99,0,0,1,.635-.933,4.18,4.18,0,0,1,1.569-1.051,6.961,6.961,0,0,1,1.225-.331,12.439,12.439,0,0,1,2.26-.121c.3-.007.429.085.432.39.01,1.4.007,2.8.007,4.205,0,.229.01.459,0,.688Z" transform="translate(-66.86 -16.348)"/><path class="c" d="M168.357,24.143h-1.765A7.261,7.261,0,0,0,159.33,31.4h0v1.274a7.169,7.169,0,0,0,7.169,7.169h4.13c4.477,0,5.46-2.4,6.151-3.858s-.527-2.384-1.857-2.42-1.366.255-1.366.255a.473.473,0,0,0-.124.213,4.149,4.149,0,0,1-3.966,2.679h-2.217a3.65,3.65,0,0,1-3.649-3.649V30.893a3.548,3.548,0,0,1,3.547-3.547H169.7a2.7,2.7,0,0,1,2.692,1.494c.835,1.166.747,1.582,2.185,1.494s2.656-.747,2.329-1.909-1.566-4.294-6.279-4.294c-.691,0-2.273.02-2.273.02Z" transform="translate(-107.146 -16.227)"/></svg>