<svg xmlns="http://www.w3.org/2000/svg" xmlns:xlink="http://www.w3.org/1999/xlink" width="50.542" height="54.485" viewBox="0 0 50.542 54.485"><defs><style>.a{fill:url(#a);}.b{fill:url(#b);}.c{fill:url(#c);}.d{fill:url(#d);}.e{fill:#ff066c;}.f{fill:#e33457;}</style><linearGradient id="a" y1="0.5" x2="1" y2="0.5" gradientUnits="objectBoundingBox"><stop offset="0" stop-color="#ab0c6e"/><stop offset="1" stop-color="#e63a55"/></linearGradient><linearGradient id="b" y1="0.5" x2="1" y2="0.5" gradientUnits="objectBoundingBox"><stop offset="0" stop-color="#ffa300"/><stop offset="1" stop-color="#f1b235"/></linearGradient><linearGradient id="c" y1="0.5" x2="1" y2="0.5" gradientUnits="objectBoundingBox"><stop offset="0" stop-color="#ec7431"/><stop offset="1" stop-color="#f3be55"/></linearGradient><linearGradient id="d" y1="0.5" x2="1" y2="0.5" gradientUnits="objectBoundingBox"><stop offset="0" stop-color="#ec4e2c"/><stop offset="1" stop-color="#fa9b54"/></linearGradient></defs><g transform="translate(-0.936 -3.626)"><path class="a" d="M19.206,26.7V46.4a.687.687,0,0,0,1.006.608L44.5,34.26a.638.638,0,0,0-.014-1.137l-3.466-1.712,5.537-5.8,9.8,5.126a3.311,3.311,0,0,1,0,5.867l-38.9,20.346a4.053,4.053,0,0,1-5.932-3.606l.138-39.821c0-1.406.884-1.984,1.33-2s1.013-.039,1.252.707S19.2,26.7,19.2,26.7Z" transform="translate(-9.218 -6.879)"/><path class="b" d="M40.534,36.273C41.768,34.968,69.853,7.992,69.853,7.992L38.7,35.341,27.28,6.824s-2.333-.679-3.5.249c.851-.239,1.874-.564,2.362.842s9.816,27.812,9.816,27.812c.4,1.09.573,1.356,1.083,1.7s1.535.782,3.493-1.154Z" transform="translate(-19.895 -2.576)"/><path class="c" d="M23.78,4.5a4.382,4.382,0,0,1,6,.718c1.712,2.2,4.122,4.638,4.122,4.638l5.852,17.9,8.377-6.694L69.853,5.415l-30.62,28.44c-.564.478-1.31.831-1.74.573s-.573-.507-.831-1.33S26.8,5.645,26.8,5.645A1.948,1.948,0,0,0,23.78,4.5Z" transform="translate(-19.895 0)"/><path class="d" d="M106.361,13.483,77.212,32.4a.6.6,0,0,1-.9-.306l-4.9-14.008a5.616,5.616,0,0,0-2.983-3.662c-1.319-.8-2.736-1.53-2.736-1.53a8.314,8.314,0,0,1,1.558,2.783C67.789,17.222,74,35.209,74,35.209c.1.287.272.861.272.861a1.853,1.853,0,0,0,1.459,1.186c.5-.028.822-.143,1.664-.8S106.361,13.483,106.361,13.483Z" transform="translate(-56.404 -8.068)"/><g transform="translate(0.936 52.315)"><path d="M5.652,387.283a1.537,1.537,0,0,1-1.221-.643L1.952,381.97a.129.129,0,0,1,.115-.188h1.4a.13.13,0,0,1,.112.065l2.069,3.635,2.125-3.637a.129.129,0,0,1,.111-.065H9.31a.131.131,0,0,1,.111.063.129.129,0,0,1,0,.128l-2.573,4.667a1.558,1.558,0,0,1-1.2.645Z" transform="translate(-1.808 -381.651)"/><path class="e" d="M8.437,381.038,5.864,385.7a1.421,1.421,0,0,1-1.086.578,1.4,1.4,0,0,1-1.109-.578l-2.476-4.667h1.4l2.128,3.737a.06.06,0,0,0,.053.031.062.062,0,0,0,.053-.03l2.184-3.739H8.437m0-.258H7.011a.26.26,0,0,0-.223.128l-2.011,3.443-1.958-3.44a.26.26,0,0,0-.225-.13h-1.4a.258.258,0,0,0-.227.38l2.476,4.667.005.009a1.681,1.681,0,0,0,1.332.706,1.643,1.643,0,0,0,1.3-.7l.008-.013,2.573-4.667a.258.258,0,0,0-.226-.382h0Z" transform="translate(-0.936 -380.78)"/></g><g transform="translate(9.184 52.331)"><rect width="1.596" height="5.458" transform="translate(0.129 0.129)"/><path class="e" d="M66.426,381.158v5.2H65.088v-5.2h1.337m0-.258H65.088a.259.259,0,0,0-.258.258v5.2a.259.259,0,0,0,.258.258h1.337a.259.259,0,0,0,.258-.258v-5.2a.259.259,0,0,0-.258-.258Z" transform="translate(-64.83 -380.9)"/></g><g transform="translate(29.781 52.331)"><rect width="1.596" height="5.458" transform="translate(0.129 0.129)"/><path class="e" d="M225.976,381.158v5.2h-1.337v-5.2h1.337m0-.258h-1.337a.259.259,0,0,0-.258.258v5.2a.259.259,0,0,0,.258.258h1.337a.259.259,0,0,0,.258-.258v-5.2a.259.259,0,0,0-.258-.258Z" transform="translate(-224.38 -380.9)"/></g><g transform="translate(41.2 52.331)"><rect width="1.596" height="5.458" transform="translate(0.129 0.129)"/><path class="e" d="M314.426,381.158v5.2h-1.337v-5.2h1.337m0-.258h-1.337a.259.259,0,0,0-.258.258v5.2a.259.259,0,0,0,.258.258h1.337a.259.259,0,0,0,.258-.258v-5.2a.259.259,0,0,0-.258-.258Z" transform="translate(-312.83 -380.9)"/></g><g transform="translate(11.982 52.358)"><path d="M93.994,387.518a.129.129,0,0,1-.128-.116l-.157-1.535c-.027-.372-.232-.372-.309-.372H89.19c-.15,0-.194.01-.194.236v1.65a.129.129,0,0,1-.129.129H87.649a.133.133,0,0,1-.092-.037.13.13,0,0,1-.037-.092c.012-1.948.023-4.89.005-5.112a.11.11,0,0,1,0-.03.129.129,0,0,1,.129-.129h6.264c.977,0,1.123.488,1.123.78v1.148a1.117,1.117,0,0,1-.229.678c-.015.023-.035.05-.043.066.005.04.039.08.1.146a1.026,1.026,0,0,1,.3.621c.037.309.19,1.767.2,1.829a.128.128,0,0,1-.032.1.129.129,0,0,1-.1.043H94Zm-4.871-3.959a.127.127,0,0,0-.128.128v.289a.127.127,0,0,0,.128.128h4.334a.127.127,0,0,0,.128-.128v-.289a.127.127,0,0,0-.128-.128Z" transform="translate(-87.388 -381.981)"/><path class="e" d="M93.025,381.368c.707,0,.994.267.994.651v1.148c.005.435-.272.636-.272.732,0,.23.334.285.4.794.039.311.2,1.827.2,1.827H93.1l-.158-1.535c-.022-.294-.157-.488-.438-.488H88.3c-.25,0-.323.1-.323.365v1.65H86.758s.031-5.142,0-5.142h6.264m-4.789,1.993h4.334a.257.257,0,0,0,.257-.257v-.289a.257.257,0,0,0-.257-.257H88.235a.257.257,0,0,0-.257.257v.289a.257.257,0,0,0,.257.257m4.789-2.251H86.761a.259.259,0,0,0-.258.258.283.283,0,0,0,0,.046c.017.275.005,3.18-.006,5.094a.263.263,0,0,0,.075.183.259.259,0,0,0,.183.076h1.219a.259.259,0,0,0,.258-.258v-1.65a.712.712,0,0,1,.006-.1.492.492,0,0,1,.058,0h4.21c.065,0,.161,0,.179.248v.008l.158,1.535a.258.258,0,0,0,.257.232h1.234a.257.257,0,0,0,.257-.285c-.006-.062-.159-1.522-.2-1.832a1.157,1.157,0,0,0-.329-.691c-.014-.015-.032-.035-.045-.052h0a1.245,1.245,0,0,0,.252-.753v-1.145c0-.274-.123-.909-1.252-.909h0Zm-.457,1.995H88.235v-.288H92.57v.288h0Z" transform="translate(-86.5 -381.11)"/></g><g transform="translate(20.876 52.328)"><path d="M157.878,387.34a1.469,1.469,0,0,1-1.468-1.468v-2.5a1.469,1.469,0,0,1,1.468-1.468l6.14-.009a.136.136,0,0,1,.092.037.128.128,0,0,1,.037.092v1.224a.129.129,0,0,1-.129.129h-6.073a.091.091,0,0,0-.09.09v2.3a.091.091,0,0,0,.09.09h4.681a.076.076,0,0,0,.076-.076v-.345a.076.076,0,0,0-.076-.076H160.4a.129.129,0,0,1-.129-.129v-1.2a.129.129,0,0,1,.129-.129h3.615a.129.129,0,0,1,.129.129v3.174a.129.129,0,0,1-.129.129Z" transform="translate(-156.28 -381.768)"/><path class="e" d="M163.137,381.139v1.224h-6.073a.219.219,0,0,0-.219.219v2.3a.219.219,0,0,0,.219.219h4.681a.2.2,0,0,0,.205-.205v-.345a.2.2,0,0,0-.205-.205h-2.223v-1.2h3.615v3.174H157a1.338,1.338,0,0,1-1.339-1.339v-2.5A1.338,1.338,0,0,1,157,381.149h.143l6-.009m0-.258h0l-6,.009H157a1.6,1.6,0,0,0-1.6,1.6v2.5a1.6,1.6,0,0,0,1.6,1.6h6.14a.259.259,0,0,0,.258-.258v-3.174a.259.259,0,0,0-.258-.258h-3.615a.259.259,0,0,0-.258.258v1.2a.259.259,0,0,0,.258.258h2.17v.239H157.1V382.62h6.034a.259.259,0,0,0,.258-.258v-1.224a.258.258,0,0,0-.258-.258h0Z" transform="translate(-155.4 -380.88)"/></g><g transform="translate(32.58 52.176)"><path d="M253.131,386.406a1.01,1.01,0,0,1-.594-.186c-.531-.378-3.371-3.146-3.71-3.486-.124-.124-.205-.137-.235-.137-.1,0-.1.164-.1.182v3.407a.129.129,0,0,1-.129.129H247.2a.129.129,0,0,1-.129-.129v-3.963a1.294,1.294,0,0,1,.567-1.194,1.179,1.179,0,0,1,.812-.3,1.048,1.048,0,0,1,.716.245l3.8,3.6a.108.108,0,0,0,.075.031.112.112,0,0,0,.114-.112v-3.484a.129.129,0,0,1,.129-.129h1.176a.133.133,0,0,1,.092.037.126.126,0,0,1,.037.092s-.009,3.22-.009,3.859a1.493,1.493,0,0,1-.523,1.193,1.528,1.528,0,0,1-.924.347h0Z" transform="translate(-246.94 -380.597)"/><path class="e" d="M247.569,379.961a.914.914,0,0,1,.625.208l3.8,3.6a.236.236,0,0,0,.164.067.241.241,0,0,0,.243-.241v-3.484h1.176s-.009,3.22-.009,3.859a1.364,1.364,0,0,1-.48,1.1,1.39,1.39,0,0,1-.837.312.876.876,0,0,1-.519-.163c-.524-.373-3.378-3.155-3.693-3.471a.5.5,0,0,0-.327-.176c-.142,0-.234.128-.234.311v3.407h-1.159v-3.963a1.169,1.169,0,0,1,.525-1.1,1.059,1.059,0,0,1,.723-.266m0-.258h0a1.311,1.311,0,0,0-.9.334,1.4,1.4,0,0,0-.608,1.288v3.963a.259.259,0,0,0,.258.258h1.159a.259.259,0,0,0,.258-.258V381.88a.184.184,0,0,1,0-.043.446.446,0,0,1,.115.089c.192.192,3.167,3.1,3.726,3.5a1.131,1.131,0,0,0,.669.21,1.64,1.64,0,0,0,1.011-.381,1.611,1.611,0,0,0,.564-1.287c0-.63.009-3.825.009-3.857a.263.263,0,0,0-.075-.183.257.257,0,0,0-.183-.076H252.4a.259.259,0,0,0-.258.258v3.444l-3.77-3.572a1.164,1.164,0,0,0-.8-.281h0Z" transform="translate(-246.06 -379.7)"/></g><g transform="translate(43.822 52.265)"><path d="M334.269,386.913a.129.129,0,0,1-.129-.129V382.56a1.168,1.168,0,0,1,1.295-1.17h.1c.349,0,.666.05,1.306.691.68.68,4.622,4.557,4.662,4.6a.129.129,0,0,1-.092.221h-1.886a.127.127,0,0,1-.092-.039l-1.3-1.323H335.7c-.043,0-.143,0-.143.25v1a.129.129,0,0,1-.129.129H334.27Zm1.455-3.811a.172.172,0,0,0-.173.161l-.054.893a.168.168,0,0,0,.046.128.17.17,0,0,0,.125.054l.948,0a.172.172,0,0,0,.121-.293l-.893-.9A.166.166,0,0,0,335.724,383.1Z" transform="translate(-334.011 -381.261)"/><path class="e" d="M334.661,380.648c.309,0,.591.03,1.215.653.688.688,4.662,4.6,4.662,4.6h-1.886l-1.334-1.363h-2.489c-.2,0-.272.165-.272.38v1H333.4v-4.224a1.041,1.041,0,0,1,1.166-1.04h.1m1.083,2.952a.3.3,0,0,0,.213-.513l-.893-.9a.292.292,0,0,0-.212-.089.3.3,0,0,0-.3.283l-.054.893a.3.3,0,0,0,.3.319l.948,0h0m-1.083-3.211h-.1a1.3,1.3,0,0,0-1.424,1.3v4.224a.259.259,0,0,0,.258.258h1.158a.259.259,0,0,0,.258-.258v-1a.378.378,0,0,1,.015-.121h2.378l1.259,1.285a.261.261,0,0,0,.185.077h1.886a.258.258,0,0,0,.181-.442c-.04-.039-3.98-3.915-4.66-4.6s-1.019-.728-1.4-.728h0Zm1.083,3.211v-.258l-.948,0a.042.042,0,0,1-.043-.045l.054-.893a.043.043,0,0,1,.044-.04.039.039,0,0,1,.028.013l.893.9a.044.044,0,0,1,.009.046.038.038,0,0,1-.039.026v.258h0Z" transform="translate(-333.14 -380.39)"/></g><g transform="translate(42.054 46.346)"><path class="f" d="M322.615,339.121a1.089,1.089,0,0,1-.887-.567c-.532-.922-1.77-3.234-1.782-3.257a.063.063,0,0,1,.013-.077l.154-.143a.06.06,0,0,1,.044-.017h1.013a.067.067,0,0,1,.057.032l1.425,2.529,1.4-2.51a.064.064,0,0,1,.057-.034h1.061a.061.061,0,0,1,.045.019l.129.129a.065.065,0,0,1,.012.076l-1.735,3.2a1.3,1.3,0,0,1-1,.62Z" transform="translate(-319.875 -334.993)"/><path d="M320.74,334.672l1.482,2.63,1.454-2.61h1.061l.129.129-1.735,3.2a1.248,1.248,0,0,1-.946.586,1.021,1.021,0,0,1-.833-.538c-.536-.928-1.779-3.252-1.779-3.252l.154-.143h1.013m0-.129h-1.013a.13.13,0,0,0-.088.035l-.154.143a.13.13,0,0,0-.026.155c.013.023,1.25,2.337,1.78,3.254a.027.027,0,0,0,.005.008,1.137,1.137,0,0,0,.94.6,1.354,1.354,0,0,0,1.051-.642l.008-.013,1.735-3.2a.129.129,0,0,0-.022-.152l-.129-.129a.128.128,0,0,0-.092-.037h-1.061a.129.129,0,0,0-.112.066l-1.341,2.409-1.368-2.43a.131.131,0,0,0-.112-.066h0Z" transform="translate(-319.444 -334.54)"/></g><g transform="translate(36.145 46.338)"><path class="f" d="M276.4,338.954a.064.064,0,0,1-.065-.065v-2.7h-2.106a.064.064,0,0,1-.065-.065v-1.081a.064.064,0,0,1,.065-.065h5.441a.064.064,0,0,1,.065.065v1.081a.064.064,0,0,1-.065.065H277.57v2.7a.064.064,0,0,1-.065.065h-1.1Z" transform="translate(-274.105 -334.915)"/><path d="M279.239,334.609v1.081h-2.17v2.764h-1.1V335.69H273.8v-1.081h5.441m0-.129H273.8a.129.129,0,0,0-.129.129v1.081a.129.129,0,0,0,.129.129h2.041v2.635a.129.129,0,0,0,.129.129h1.1a.129.129,0,0,0,.129-.129v-2.635h2.041a.129.129,0,0,0,.129-.129v-1.081a.129.129,0,0,0-.129-.129h0Z" transform="translate(-273.67 -334.48)"/></g><g transform="translate(31.612 34.139)"><path d="M240.045,256.022a.065.065,0,0,1-.059-.039c-.006-.015-.634-1.49-.852-2.058a1.316,1.316,0,0,1,.927-1.757c.075-.031,7.466-3.018,8.176-3.319a1.441,1.441,0,0,1,.283-.9l-4.1-2.9a.739.739,0,1,1,.138-.426.722.722,0,0,1-.07.309l4.179,2.838a1.322,1.322,0,0,1,1.02-.442l1.126-5.4a.738.738,0,1,1,.226.03c-.071.346-.866,4.241-1.11,5.373h.043a1.236,1.236,0,0,1,.908.491c.288-.119,1.86-.773,2.5-1.064a1.467,1.467,0,0,1,.609-.134,1.309,1.309,0,0,1,1.2.747l3.535,8.527a.065.065,0,0,1-.061.089h-1.072a.061.061,0,0,1-.059-.041c-.023-.059-2.366-5.938-2.716-6.809a2.446,2.446,0,0,0-.726-1.17l-.012-.009a1.07,1.07,0,0,0-.652-.253.814.814,0,0,0-.377.093c-.112.046-10.7,4.41-11.566,4.765-1.011.414-1.42.948-1.217,1.584l.744,1.788a.065.065,0,0,1-.061.089h-.906Z" transform="translate(-238.981 -240.407)"/><path class="f" d="M250.6,240.106a.679.679,0,1,1,0,1.358l-.031,0c0,.012,0,.022-.005.035s-.9,4.425-1.133,5.479a.812.812,0,0,1,.124-.009,1.178,1.178,0,0,1,.887.5s1.836-.76,2.546-1.083a1.4,1.4,0,0,1,.584-.129,1.246,1.246,0,0,1,1.145.71l3.533,8.525h-1.072s-2.362-5.929-2.716-6.809a2.47,2.47,0,0,0-.755-1.2,1.131,1.131,0,0,0-.693-.267.879.879,0,0,0-.407.1s-10.687,4.4-11.562,4.762-1.5.9-1.255,1.664l.746,1.793h-.906s-.631-1.482-.851-2.056a1.258,1.258,0,0,1,.889-1.673s7.843-3.171,8.22-3.338a1.361,1.361,0,0,1,.307-.954l-4.21-2.976a.674.674,0,1,1,.092-.334.665.665,0,0,1-.089.329l4.273,2.9.022-.025a1.285,1.285,0,0,1,1.041-.438l1.14-5.472.012-.044a.678.678,0,0,1,.124-1.345m0-.129a.807.807,0,0,0-.278,1.566l-1.1,5.3a1.376,1.376,0,0,0-.975.42l-4.09-2.777a.771.771,0,0,0,.054-.284.814.814,0,1,0-.188.515l4,2.825a1.5,1.5,0,0,0-.259.84c-.9.38-8.059,3.273-8.134,3.3a1.391,1.391,0,0,0-.962,1.84c.218.569.847,2.045.853,2.06a.13.13,0,0,0,.119.079h.906a.128.128,0,0,0,.107-.058.127.127,0,0,0,.012-.121l-.744-1.788c-.187-.6.212-1.1,1.183-1.5.865-.355,11.455-4.718,11.562-4.762l.01-.005a.756.756,0,0,1,.347-.087,1.012,1.012,0,0,1,.611.238l.012.01a2.4,2.4,0,0,1,.707,1.144c.35.87,2.692,6.749,2.716,6.809a.129.129,0,0,0,.12.081h1.072a.13.13,0,0,0,.107-.057.127.127,0,0,0,.012-.121l-3.533-8.526a1.375,1.375,0,0,0-1.265-.79,1.536,1.536,0,0,0-.636.141c-.611.278-2.076.887-2.453,1.044a1.271,1.271,0,0,0-.889-.476c.253-1.183.975-4.709,1.084-5.246a.808.808,0,0,0-.076-1.612h0Z" transform="translate(-238.564 -239.98)"/></g></g></svg>